<svg width="1280" height="425" viewBox="0 0 1280 425" fill="none" xmlns="http://www.w3.org/2000/svg">
<rect y="0.00369263" width="1280" height="422.36" fill="url(#paint0_linear_8_14964)" fill-opacity="0.8"/>
<g clip-path="url(#clip0_8_14964)">
<path d="M1257.15 450.475C1245.19 437.699 1230.56 424.627 1212.73 424.627C1194.91 424.627 1180.25 437.699 1168.31 450.475L1167.77 448.527C1179.85 435.618 1194.65 422.414 1212.73 422.414C1230.82 422.414 1245.61 435.618 1257.69 448.527L1257.15 450.475Z" fill="white" fill-opacity="0.5"/>
<path d="M1025.72 450.475C1013.76 437.699 999.131 424.627 981.305 424.627C963.479 424.627 948.826 437.699 936.884 450.475L936.34 448.527C948.425 435.618 963.222 422.414 981.305 422.414C999.388 422.414 1014.18 435.618 1026.26 448.527L1025.72 450.475Z" fill="white" fill-opacity="0.5"/>
<path d="M1270.3 450.445C1253.03 430.455 1235.17 409.786 1212.73 409.786C1190.3 409.786 1172.44 430.44 1155.16 450.445L1154.59 448.542C1171.96 428.404 1189.98 407.573 1212.75 407.573C1235.52 407.573 1253.49 428.404 1270.91 448.542L1270.3 450.445Z" fill="white" fill-opacity="0.5"/>
<path d="M1038.87 450.445C1021.6 430.455 1003.74 409.786 981.306 409.786C958.872 409.786 941.008 430.44 923.734 450.445L923.16 448.542C940.532 428.404 958.555 407.573 981.321 407.573C1004.09 407.573 1022.06 428.404 1039.48 448.542L1038.87 450.445Z" fill="white" fill-opacity="0.5"/>
<path d="M1283.48 450.468C1279.04 445.718 1274.6 440.569 1270.3 435.597C1253.03 415.577 1235.2 394.923 1212.73 394.923C1190.27 394.923 1172.44 415.577 1155.13 435.597C1150.84 440.569 1146.4 445.718 1141.95 450.468L1141.41 448.521C1145.83 443.785 1150.27 438.651 1154.56 433.694C1171.93 413.556 1189.95 392.724 1212.72 392.724C1235.48 392.724 1253.46 413.556 1270.88 433.694C1275.16 438.666 1279.6 443.785 1284.02 448.521L1283.48 450.468Z" fill="white" fill-opacity="0.5"/>
<path d="M1052.05 450.468C1047.61 445.718 1043.17 440.569 1038.87 435.597C1021.6 415.577 1003.74 394.923 981.305 394.923C958.872 394.923 941.008 415.577 923.733 435.582C919.443 440.554 915.002 445.703 910.553 450.453L910.009 448.506C914.435 443.77 918.869 438.636 923.159 433.679C940.532 413.541 958.555 392.71 981.321 392.71C1004.09 392.71 1022.06 413.541 1039.48 433.679C1043.76 438.636 1048.2 443.77 1052.62 448.506L1052.05 450.468Z" fill="white" fill-opacity="0.5"/>
<path d="M1299.51 450.542C1289.25 442.708 1279.62 431.555 1270.31 420.77C1253.03 400.839 1235.2 380.184 1212.73 380.184C1190.27 380.184 1172.44 400.839 1155.13 420.77C1145.82 431.555 1136.18 442.708 1125.92 450.542L1125.51 448.476C1135.71 440.672 1145.31 429.607 1154.59 418.867C1171.96 398.714 1189.98 377.898 1212.75 377.898C1235.52 377.898 1253.49 398.729 1270.91 418.867C1280.19 429.607 1289.79 440.716 1299.95 448.476L1299.51 450.542Z" fill="white" fill-opacity="0.5"/>
<path d="M1068.09 450.535C1057.82 442.701 1048.19 431.548 1038.87 420.764C1021.6 400.832 1003.74 380.178 981.306 380.178C958.872 380.178 941.008 400.832 923.734 420.837C914.481 431.474 904.911 442.554 894.721 450.373L894.313 448.322C904.412 440.562 913.952 429.527 923.16 418.816C940.532 398.663 958.555 377.847 981.321 377.847C1004.09 377.847 1022.06 398.678 1039.48 418.816C1048.76 429.556 1058.37 440.665 1068.52 448.426L1068.09 450.535Z" fill="white" fill-opacity="0.5"/>
<path d="M1097.02 446.885C1074.27 446.885 1056.27 426.053 1038.85 405.915C1021.59 385.925 1003.72 365.241 981.29 365.241C958.857 365.241 940.993 385.895 923.719 405.915C914.481 416.626 904.911 427.706 894.721 435.525L894.313 433.459C904.412 425.714 913.952 414.679 923.16 403.953C940.532 383.8 958.555 362.969 981.321 362.969C1004.09 362.969 1022.06 383.8 1039.48 403.953C1056.75 423.944 1074.61 444.613 1097.05 444.613C1119.49 444.613 1137.34 423.958 1154.62 403.953C1171.99 383.8 1190.01 362.969 1212.78 362.969V365.182C1190.34 365.182 1172.48 385.836 1155.21 405.856C1137.76 426.053 1119.77 446.885 1097.02 446.885Z" fill="white" fill-opacity="0.5"/>
<path d="M1097.02 432.036C1074.27 432.036 1056.27 411.205 1038.85 391.067C1021.59 371.062 1003.72 350.392 981.29 350.392C958.857 350.392 940.993 371.047 923.719 391.067C914.481 401.777 904.911 412.857 894.721 420.676L894.313 418.611C904.412 410.865 913.952 399.83 923.16 389.105C940.532 368.952 958.555 348.12 981.321 348.12C1004.09 348.12 1022.06 368.952 1039.48 389.105C1056.75 409.095 1074.61 429.764 1097.05 429.764C1119.49 429.764 1137.34 409.11 1154.62 389.105C1171.99 368.952 1190.01 348.12 1212.78 348.12V350.333C1190.34 350.333 1172.48 370.988 1155.21 391.008C1137.76 411.146 1119.77 432.036 1097.02 432.036Z" fill="white" fill-opacity="0.5"/>
<path d="M1097.02 417.209C1074.27 417.209 1056.27 396.378 1038.85 376.24C1021.59 356.235 1003.72 335.565 981.29 335.565C958.857 335.565 940.993 356.22 923.719 376.225C914.481 386.95 904.911 398.03 894.721 405.849L894.313 403.784C904.412 396.024 913.952 385.003 923.16 374.278C940.532 354.14 958.555 333.308 981.321 333.308C1004.09 333.308 1022.06 354.14 1039.48 374.278C1056.75 394.283 1074.61 414.952 1097.05 414.952C1119.49 414.952 1137.34 394.297 1154.62 374.278C1171.99 354.14 1190.01 333.308 1212.78 333.308V335.521C1190.34 335.521 1172.48 356.176 1155.21 376.195C1137.76 396.407 1119.77 417.209 1097.02 417.209Z" fill="white" fill-opacity="0.5"/>
<path d="M1097.02 402.309C1074.27 402.309 1056.27 381.477 1038.85 361.325C1021.59 341.334 1003.72 320.665 981.29 320.665C958.857 320.665 940.993 341.319 923.719 361.325C914.481 372.094 904.911 383.13 894.721 390.993L894.313 388.942C904.412 381.182 913.952 370.147 923.16 359.436C940.532 339.298 958.555 318.467 981.321 318.467C1004.09 318.467 1022.06 339.298 1039.48 359.436C1056.75 379.427 1074.61 400.11 1097.05 400.11C1119.49 400.11 1137.34 379.456 1154.62 359.436C1171.99 339.298 1190.01 318.467 1212.78 318.467V320.68C1190.34 320.68 1172.48 341.334 1155.21 361.339C1137.76 381.536 1119.77 402.309 1097.02 402.309Z" fill="white" fill-opacity="0.5"/>
<path d="M1097.02 387.556C1074.27 387.556 1056.27 366.724 1038.85 346.572C1021.59 326.581 1003.72 305.912 981.29 305.912C958.857 305.912 940.993 326.567 923.719 346.572C914.481 357.253 904.911 368.377 894.721 376.152L894.313 374.101C904.412 366.341 913.952 355.306 923.16 344.595C940.532 324.457 958.555 303.625 981.321 303.625C1004.09 303.625 1022.06 324.457 1039.48 344.595C1056.75 364.585 1074.61 385.269 1097.05 385.269C1119.49 385.269 1137.34 364.615 1154.62 344.595C1171.99 324.457 1190.01 303.625 1212.78 303.625V305.838C1190.34 305.838 1172.48 326.493 1155.21 346.498C1137.76 366.695 1119.77 387.556 1097.02 387.556Z" fill="white" fill-opacity="0.5"/>
<path d="M1097.02 372.67C1074.27 372.67 1056.27 351.839 1038.85 331.701C1021.59 311.711 1003.72 291.027 981.29 291.027C958.857 291.027 940.993 311.681 923.719 331.701C914.481 342.412 904.911 353.491 894.721 361.311L894.313 359.26C904.412 351.5 913.952 340.464 923.16 329.754C940.532 309.601 958.555 288.77 981.321 288.77C1004.09 288.77 1022.06 309.601 1039.48 329.754C1056.75 349.744 1074.61 370.413 1097.05 370.413C1119.49 370.413 1137.34 349.759 1154.62 329.754C1171.99 309.601 1190.01 288.77 1212.78 288.77V290.983C1190.34 290.983 1172.48 311.637 1155.21 331.657C1137.76 351.839 1119.77 372.67 1097.02 372.67Z" fill="white" fill-opacity="0.5"/>
<path d="M1097.02 357.822C1074.27 357.822 1056.27 336.991 1038.85 316.853C1021.59 296.862 1003.72 276.179 981.29 276.179C958.857 276.179 940.993 296.833 923.719 316.853C914.481 327.564 904.911 338.643 894.721 346.462L894.313 344.397C904.412 336.651 913.952 325.616 923.16 314.891C940.532 294.738 958.555 273.907 981.321 273.907C1004.09 273.907 1022.06 294.738 1039.48 314.891C1056.75 334.881 1074.61 355.55 1097.05 355.55C1119.49 355.55 1137.34 334.896 1154.62 314.891C1171.99 294.738 1190.01 273.907 1212.78 273.907V276.12C1190.34 276.12 1172.48 296.774 1155.21 316.794C1137.76 336.991 1119.77 357.822 1097.02 357.822Z" fill="white" fill-opacity="0.5"/>
<path d="M1097.02 342.988C1074.27 342.988 1056.27 322.156 1038.85 302.018C1021.59 282.013 1003.72 261.344 981.29 261.344C958.857 261.344 940.993 281.998 923.719 302.018C914.481 312.729 904.911 323.809 894.721 331.628L894.313 329.562C904.412 321.802 913.952 310.782 923.16 300.056C940.532 279.918 958.555 259.087 981.321 259.087C1004.09 259.087 1022.06 279.918 1039.48 300.056C1056.75 320.061 1074.61 340.73 1097.05 340.73C1119.49 340.73 1137.34 320.076 1154.62 300.056C1171.99 279.918 1190.01 259.087 1212.78 259.087V261.3C1190.34 261.3 1172.48 281.954 1155.21 301.974C1137.76 322.156 1119.77 342.988 1097.02 342.988Z" fill="white" fill-opacity="0.5"/>
<path d="M1097.02 328.14C1074.27 328.14 1056.27 307.308 1038.85 287.156C1021.59 267.165 1003.72 246.496 981.29 246.496C958.857 246.496 941.008 267.165 923.734 287.229C914.481 297.881 904.911 308.961 894.721 316.736L894.313 314.67C904.412 306.91 913.952 295.875 923.16 285.164C940.532 265.026 958.555 244.195 981.321 244.195C1004.09 244.195 1022.06 265.026 1039.48 285.164C1056.75 305.169 1074.61 325.838 1097.05 325.838C1119.49 325.838 1137.34 305.184 1154.62 285.164C1171.99 265.026 1190.01 244.195 1212.78 244.195V246.408C1190.34 246.408 1172.48 267.062 1155.21 287.067C1137.76 307.308 1119.77 328.14 1097.02 328.14Z" fill="white" fill-opacity="0.5"/>
<path d="M1097.02 313.297C1074.27 313.297 1056.27 292.466 1038.85 272.313C1021.59 252.322 1003.72 231.653 981.29 231.653C958.857 231.653 940.993 252.308 923.719 272.313C914.481 283.024 904.911 294.103 894.721 301.981L894.313 299.931C904.412 292.171 913.952 281.135 923.16 270.424C940.532 250.287 958.555 229.455 981.321 229.455C1004.09 229.455 1022.06 250.287 1039.48 270.424C1056.75 290.415 1074.61 311.099 1097.05 311.099C1119.49 311.099 1137.34 290.444 1154.62 270.424C1171.99 250.287 1190.01 229.455 1212.78 229.455V231.668C1190.34 231.668 1172.48 252.322 1155.21 272.328C1137.76 292.466 1119.77 313.297 1097.02 313.297Z" fill="white" fill-opacity="0.5"/>
<path d="M1097.02 298.449C1074.27 298.449 1056.27 277.618 1038.85 257.465C1021.59 237.475 1003.72 216.806 981.29 216.806C958.857 216.806 940.993 237.46 923.719 257.465C914.481 268.176 904.911 279.255 894.721 287.075L894.313 285.024C904.412 277.264 913.952 266.229 923.16 255.518C940.532 235.365 958.555 214.548 981.321 214.548C1004.09 214.548 1022.06 235.38 1039.48 255.518C1056.75 275.508 1074.61 296.192 1097.05 296.192C1119.49 296.192 1137.34 275.538 1154.62 255.518C1171.99 235.38 1190.01 214.548 1212.78 214.548V216.761C1190.34 216.761 1172.48 237.416 1155.21 257.421C1137.76 277.618 1119.77 298.449 1097.02 298.449Z" fill="white" fill-opacity="0.5"/>
<path d="M1097.02 283.608C1074.27 283.608 1056.27 262.777 1038.85 242.639C1021.59 222.648 1003.72 201.964 981.29 201.964C958.857 201.964 940.993 222.619 923.719 242.639C914.481 253.305 904.911 264.429 894.721 272.248L894.313 270.183C904.412 262.437 913.952 251.402 923.16 240.677C940.532 220.524 958.555 199.693 981.321 199.693C1004.09 199.693 1022.06 220.524 1039.48 240.677C1056.72 260.682 1074.57 281.336 1097.02 281.336C1119.46 281.336 1137.31 260.682 1154.59 240.677C1171.96 220.524 1189.98 199.693 1212.75 199.693V201.905C1190.31 201.905 1172.45 222.56 1155.18 242.58C1137.76 262.777 1119.77 283.608 1097.02 283.608Z" fill="white" fill-opacity="0.5"/>
<path d="M1097.02 268.759C1074.27 268.759 1056.27 247.928 1038.85 227.79C1021.59 207.8 1003.72 187.116 981.29 187.116C958.857 187.116 940.993 207.77 923.719 227.79C914.481 238.545 904.911 249.58 894.721 257.4L894.313 255.334C904.412 247.589 913.952 236.554 923.16 225.828C940.532 205.675 958.555 184.844 981.321 184.844C1004.09 184.844 1022.06 205.675 1039.48 225.828C1056.72 245.922 1074.57 266.576 1097.02 266.576C1119.46 266.576 1137.31 245.922 1154.59 225.917C1171.96 205.764 1189.98 184.932 1212.75 184.932V187.145C1190.31 187.145 1172.45 207.8 1155.18 227.82C1137.76 247.928 1119.77 268.759 1097.02 268.759Z" fill="white" fill-opacity="0.5"/>
<path d="M1097.02 253.911C1074.27 253.911 1056.27 233.079 1038.85 212.927C1021.59 192.936 1003.72 172.267 981.29 172.267C958.857 172.267 940.993 192.921 923.719 212.927C914.481 223.652 904.911 234.732 894.721 242.551L894.313 240.485C904.412 232.725 913.952 221.705 923.16 210.979C940.532 190.841 958.555 170.01 981.321 170.01C1004.09 170.01 1022.06 190.841 1039.48 210.979C1056.75 230.984 1074.61 251.653 1097.05 251.653C1119.49 251.653 1137.34 230.999 1154.62 210.979C1171.99 190.841 1190.01 170.01 1212.78 170.01V172.223C1190.34 172.223 1172.48 192.877 1155.21 212.882C1137.76 233.079 1119.77 253.911 1097.02 253.911Z" fill="white" fill-opacity="0.5"/>
<path d="M1097.02 239.069C1074.27 239.069 1056.27 218.238 1038.85 198.085C1021.6 178.051 1003.74 157.396 981.306 157.396C958.872 157.396 941.008 178.051 923.734 198.056C914.481 208.811 904.911 219.876 894.721 227.709L894.313 225.644C904.412 217.884 913.952 206.849 923.16 196.138C940.532 176 958.555 155.169 981.321 155.169C1004.09 155.169 1022.06 176 1039.48 196.138C1056.75 216.128 1074.61 236.812 1097.05 236.812C1119.49 236.812 1137.34 216.158 1154.62 196.138C1171.99 176 1190.01 155.169 1212.78 155.169V157.396C1190.34 157.396 1172.48 178.051 1155.21 198.056C1137.76 218.238 1119.77 239.069 1097.02 239.069Z" fill="white" fill-opacity="0.5"/>
<path d="M1097.02 224.235C1074.27 224.235 1056.27 203.404 1038.85 183.251C1021.6 163.305 1003.74 142.651 981.306 142.651C958.872 142.651 941.008 163.305 923.734 183.31C914.481 193.962 904.911 205.042 894.721 212.861L894.313 210.81C904.412 203.05 913.952 192.015 923.16 181.304C940.532 161.166 958.555 140.335 981.321 140.335C1004.09 140.335 1022.06 161.166 1039.48 181.304C1056.75 201.294 1074.61 221.978 1097.05 221.978C1119.49 221.978 1137.34 201.324 1154.62 181.304C1171.99 161.166 1190.01 140.335 1212.78 140.335V142.651C1190.34 142.651 1172.48 163.305 1155.21 183.31C1137.76 203.404 1119.77 224.235 1097.02 224.235Z" fill="white" fill-opacity="0.5"/>
<path d="M1097.02 209.372C1074.27 209.372 1056.27 188.556 1038.85 168.403C1021.59 148.412 1003.72 127.729 981.29 127.729C958.857 127.729 940.993 148.383 923.719 168.403C914.481 179.114 904.911 190.193 894.721 198.012L894.313 195.962C904.412 188.201 913.952 177.166 923.16 166.455C940.532 146.303 958.555 125.471 981.321 125.471C1004.09 125.471 1022.06 146.303 1039.48 166.455C1056.75 186.446 1074.61 207.115 1097.05 207.115C1119.49 207.115 1137.34 186.461 1154.62 166.455C1171.99 146.303 1190.01 125.471 1212.78 125.471V127.684C1190.34 127.684 1172.48 148.339 1155.21 168.359C1137.76 188.556 1119.77 209.372 1097.02 209.372Z" fill="white" fill-opacity="0.5"/>
<path d="M1097.02 194.531C1074.27 194.531 1056.27 173.7 1038.85 153.562C1021.59 133.571 1003.72 112.887 981.29 112.887C958.857 112.887 940.993 133.542 923.719 153.562C914.481 164.272 904.911 175.352 894.721 183.171L894.313 181.106C904.412 173.36 913.952 162.325 923.16 151.599C940.532 131.447 958.555 110.615 981.321 110.615C1004.09 110.615 1022.06 131.447 1039.48 151.599C1056.75 171.59 1074.61 192.259 1097.05 192.259C1119.49 192.259 1137.34 171.605 1154.62 151.599C1171.99 131.447 1190.01 110.615 1212.78 110.615V112.828C1190.34 112.828 1172.48 133.483 1155.21 153.503C1137.76 173.7 1119.77 194.531 1097.02 194.531Z" fill="white" fill-opacity="0.5"/>
<path d="M1097.02 179.697C1074.27 179.697 1056.27 158.866 1038.85 138.728C1021.59 118.722 1003.72 98.0533 981.29 98.0533C958.857 98.0533 940.993 118.708 923.719 138.728C914.481 149.438 904.911 160.518 894.721 168.337L894.313 166.257C904.412 158.511 913.952 147.476 923.16 136.751C940.532 116.613 958.555 95.7813 981.321 95.7813C1004.09 95.7813 1022.06 116.613 1039.48 136.765C1056.75 156.756 1074.61 177.425 1097.05 177.425C1119.49 177.425 1137.34 156.771 1154.62 136.765C1171.99 116.613 1190.01 95.7813 1212.78 95.7813V97.9943C1190.34 97.9943 1172.48 118.649 1155.21 138.669C1137.76 158.88 1119.77 179.697 1097.02 179.697Z" fill="white" fill-opacity="0.5"/>
<path d="M1097.02 164.854C1074.27 164.854 1056.27 144.023 1038.85 123.87C1021.59 103.88 1003.72 83.2106 981.29 83.2106C958.857 83.2106 940.993 103.865 923.719 123.87C914.481 134.596 904.911 145.675 894.721 153.494L894.313 151.503C904.412 143.743 913.952 132.722 923.16 121.997C940.532 101.859 958.555 81.0272 981.321 81.0272C1004.09 81.0272 1022.06 101.859 1039.48 121.997C1056.75 142.002 1074.61 162.671 1097.05 162.671C1119.49 162.671 1137.34 142.016 1154.62 121.997C1171.99 101.859 1190.01 81.0272 1212.78 81.0272V83.2402C1190.34 83.2402 1172.48 103.894 1155.21 123.9C1137.76 144.023 1119.77 164.854 1097.02 164.854Z" fill="white" fill-opacity="0.5"/>
<path d="M1097.02 150.029C1074.27 150.029 1056.27 129.197 1038.85 109.045C1021.59 89.0543 1003.72 68.3852 981.29 68.3852C958.857 68.3852 940.993 89.0395 923.719 109.045C914.481 119.741 904.911 130.85 894.721 138.639L894.313 136.589C904.412 128.829 913.952 117.793 923.16 107.083C940.532 86.9446 958.555 66.1132 981.321 66.1132C1004.09 66.1132 1022.06 86.9446 1039.48 107.083C1056.75 127.073 1074.61 147.757 1097.05 147.757C1119.49 147.757 1137.34 127.102 1154.62 107.083C1171.99 86.9446 1190.01 66.1132 1212.78 66.1132V68.3262C1190.34 68.3262 1172.48 88.9805 1155.21 108.986C1137.76 129.183 1119.77 150.029 1097.02 150.029Z" fill="white" fill-opacity="0.5"/>
<path d="M1097.02 135.173C1074.27 135.173 1056.27 114.341 1038.85 94.1886C1021.59 74.1982 1003.72 53.5291 981.29 53.5291C958.857 53.5291 940.993 74.1835 923.719 94.1886C914.481 104.899 904.911 115.979 894.721 123.798L894.313 121.747C904.412 113.987 913.952 102.952 923.16 92.2412C940.532 72.1033 958.555 51.2719 981.321 51.2719C1004.09 51.2719 1022.06 72.1033 1039.48 92.2412C1056.75 112.232 1074.61 132.916 1097.05 132.916C1119.49 132.916 1137.34 112.261 1154.62 92.2412C1171.99 72.1033 1190.01 51.2719 1212.78 51.2719V53.4849C1190.34 53.4849 1172.48 74.1392 1155.21 94.1444C1137.76 114.341 1119.77 135.173 1097.02 135.173Z" fill="white" fill-opacity="0.5"/>
<path d="M1097.02 120.317C1074.27 120.317 1056.27 99.4854 1038.85 79.3475C1021.59 59.357 1003.72 38.6732 981.29 38.6732C958.857 38.6732 940.993 59.3275 923.719 79.3475C914.481 90.0582 904.911 101.138 894.721 108.957L894.313 106.906C904.412 99.1461 913.952 88.1108 923.16 77.4001C940.532 57.2473 958.555 36.416 981.321 36.416C1004.09 36.416 1022.06 57.2473 1039.48 77.4001C1056.75 97.3905 1074.61 118.06 1097.05 118.06C1119.49 118.06 1137.34 97.4053 1154.62 77.4001C1171.99 57.2473 1190.01 36.416 1212.78 36.416V38.6289C1190.34 38.6289 1172.48 59.2833 1155.21 79.3032C1137.76 99.4854 1119.77 120.317 1097.02 120.317Z" fill="white" fill-opacity="0.5"/>
<path d="M1097.02 105.476C1074.27 105.476 1056.27 84.6443 1038.85 64.5064C1021.59 44.5159 1003.72 23.8321 981.29 23.8321C958.857 23.8321 941.008 44.5159 923.734 64.4621C914.481 75.2171 904.911 86.2967 894.721 94.1158L894.313 92.0504C904.412 84.305 913.952 73.2697 923.16 62.5442C940.532 42.3915 958.555 21.5602 981.321 21.5602C1004.09 21.5602 1022.06 42.3915 1039.48 62.5442C1056.75 82.5347 1074.61 103.204 1097.05 103.204C1119.49 103.204 1137.34 82.5494 1154.62 62.5442C1171.99 42.3915 1190.01 21.5602 1212.78 21.5602V23.7731C1190.34 23.7731 1172.48 44.4274 1155.21 64.4474C1137.76 84.6443 1119.77 105.476 1097.02 105.476Z" fill="white" fill-opacity="0.5"/>
<path d="M1097.02 90.6263C1074.27 90.6263 1056.27 69.7949 1038.85 49.6569C1021.6 29.6518 1003.74 8.98268 981.306 8.98268C958.872 8.98268 941.008 29.6518 923.734 49.7012C914.481 60.3677 904.911 71.4473 894.721 79.2074L894.313 77.1419C904.412 69.3966 913.952 58.3613 923.16 47.6358C940.563 27.5716 958.555 6.76971 981.306 6.76971C1004.06 6.76971 1022.05 27.6011 1039.47 47.7538C1056.73 67.7442 1074.59 88.4133 1097.03 88.4133C1119.47 88.4133 1137.33 67.759 1154.6 47.7538C1171.98 27.6011 1190 6.76971 1212.76 6.76971V8.98268C1190.32 8.98268 1172.47 29.637 1155.19 49.6569C1137.76 69.7949 1119.77 90.6263 1097.02 90.6263Z" fill="white" fill-opacity="0.5"/>
<path d="M1097.02 75.7851C1074.27 75.7851 1056.27 54.9537 1038.85 34.801C1021.6 14.8106 1003.74 -5.8585 981.306 -5.8585C958.872 -5.8585 941.008 14.7958 923.734 34.801C914.481 45.5265 904.911 56.6061 894.721 64.4547L894.313 62.3893C904.412 54.6292 913.952 43.6086 923.16 32.8831C940.532 12.7451 958.555 -8.08621 981.321 -8.08621C1004.09 -8.08621 1022.06 12.7451 1039.48 32.8831C1056.75 52.8883 1074.61 73.5574 1097.05 73.5574C1119.49 73.5574 1137.34 52.903 1154.62 32.8831C1171.99 12.7451 1190.01 -8.08621 1212.78 -8.08621V-5.87325C1190.34 -5.87325 1172.48 14.7811 1155.21 34.7863C1137.76 54.9537 1119.77 75.7851 1097.02 75.7851Z" fill="white" fill-opacity="0.5"/>
<path d="M1097.02 60.9442C1074.27 60.9442 1056.27 40.1129 1038.85 19.9601C1021.6 -0.030304 1003.74 -20.6994 981.306 -20.6994C958.872 -20.6994 941.008 -0.030304 923.734 19.9601C914.481 30.6709 904.911 41.7504 894.721 49.5696L894.313 47.5189C904.412 39.7588 913.952 28.7235 923.16 18.0127C940.532 -2.12524 958.555 -22.9566 981.321 -22.9566C1004.09 -22.9566 1022.06 -2.12524 1039.48 18.0127C1056.75 38.0032 1074.61 58.687 1097.05 58.687C1119.49 58.687 1137.34 38.0327 1154.62 18.0127C1171.99 -2.12524 1190.01 -22.9566 1212.78 -22.9566V-20.7436C1190.34 -20.7436 1172.48 -0.0893154 1155.21 19.9159C1137.76 40.1129 1119.77 60.9442 1097.02 60.9442Z" fill="white" fill-opacity="0.5"/>
<path d="M1097.02 46.1047C1074.27 46.1047 1056.27 25.2586 1038.86 5.12062C1029.59 -5.61963 1020 -16.6844 1009.83 -24.4888L1010.24 -26.5543C1020.5 -18.7204 1030.13 -7.56704 1039.44 3.21747C1056.72 23.1489 1074.58 43.8917 1097.02 43.8917C1119.46 43.8917 1137.31 23.2374 1154.59 3.21747C1163.9 -7.56704 1173.53 -18.7204 1183.83 -26.5543L1184.25 -24.4888C1174.02 -16.6844 1164.44 -5.61963 1155.13 5.12062C1137.76 25.2733 1119.77 46.1047 1097.02 46.1047Z" fill="white" fill-opacity="0.5"/>
<path d="M894.721 34.7301L894.313 32.6794C904.412 24.9193 913.952 13.884 923.16 3.17321C932.367 -7.53753 942.126 -18.7204 952.369 -26.5543L952.784 -24.4888C942.602 -16.6844 933.009 -5.61963 923.734 5.12062C914.458 15.8609 904.911 26.9109 894.721 34.7301Z" fill="white" fill-opacity="0.5"/>
<path d="M1097.02 31.2475C1074.26 31.2475 1056.27 10.4161 1038.85 -9.72187C1034.57 -14.6937 1030.14 -19.813 1025.7 -24.475L1026.25 -26.4224C1030.7 -21.6719 1035.14 -16.523 1039.44 -11.5513C1056.72 8.39492 1074.57 29.0492 1097.02 29.0492C1119.46 29.0492 1137.31 8.39492 1154.59 -11.625C1158.88 -16.5968 1163.32 -21.7456 1167.77 -26.4961L1168.31 -24.5487C1163.88 -19.813 1159.45 -14.6789 1155.16 -9.79563C1137.76 10.4161 1119.77 31.2475 1097.02 31.2475Z" fill="white" fill-opacity="0.5"/>
<path d="M894.721 19.8885L894.313 17.823C904.412 10.0777 913.952 -0.957655 923.152 -11.6831C927.45 -16.6549 931.891 -21.8038 936.34 -26.5543L936.884 -24.6069C932.45 -19.8711 928.016 -14.737 923.734 -9.85377C914.481 1.01926 904.911 12.0693 894.721 19.8885Z" fill="white" fill-opacity="0.5"/>
<path d="M1097.02 16.4126C1074.27 16.4126 1056.27 -4.41873 1038.86 -24.5567L1039.44 -26.4598C1056.7 -6.46941 1074.56 14.1997 1097 14.1997C1119.44 14.1997 1137.3 -6.45465 1154.57 -26.4598L1155.15 -24.5567C1137.76 -4.41873 1119.77 16.4126 1097.02 16.4126Z" fill="white" fill-opacity="0.5"/>
<path d="M894.721 5.04652L894.313 2.98109C904.405 -4.76428 913.952 -15.7848 923.144 -26.5251L923.734 -24.6367C914.473 -13.8374 904.903 -2.77261 894.721 5.04652Z" fill="white" fill-opacity="0.5"/>
<path d="M1097.02 1.56425C1078.93 1.56425 1064.14 -11.6398 1052.05 -24.5487L1052.59 -26.4961C1064.56 -13.7347 1079.19 -0.648716 1097.02 -0.648716C1114.84 -0.648716 1129.45 -13.7347 1141.44 -26.4961L1141.98 -24.5487C1129.9 -11.6398 1115.1 1.56425 1097.02 1.56425Z" fill="white" fill-opacity="0.5"/>
</g>
<g clip-path="url(#clip1_8_14964)">
<path d="M658.172 450.475C646.215 437.699 631.584 424.627 613.758 424.627C595.932 424.627 581.279 437.699 569.337 450.475L568.793 448.527C580.878 435.618 595.675 422.414 613.758 422.414C631.841 422.414 646.631 435.618 658.716 448.527L658.172 450.475Z" fill="white" fill-opacity="0.5"/>
<path d="M426.744 450.475C414.787 437.699 400.156 424.627 382.33 424.627C364.504 424.627 349.85 437.699 337.908 450.475L337.365 448.527C349.45 435.618 364.247 422.414 382.33 422.414C400.413 422.414 415.202 435.618 427.288 448.527L426.744 450.475Z" fill="white" fill-opacity="0.5"/>
<path d="M671.322 450.445C654.055 430.455 636.191 409.786 613.758 409.786C591.324 409.786 573.46 430.44 556.186 450.445L555.612 448.542C572.985 428.404 591.007 407.573 613.773 407.573C636.539 407.573 654.516 428.404 671.934 448.542L671.322 450.445Z" fill="white" fill-opacity="0.5"/>
<path d="M439.894 450.445C422.62 430.455 404.764 409.786 382.33 409.786C359.897 409.786 342.033 430.44 324.758 450.445L324.184 448.542C341.557 428.404 359.579 407.573 382.345 407.573C405.111 407.573 423.081 428.404 440.506 448.542L439.894 450.445Z" fill="white" fill-opacity="0.5"/>
<path d="M684.503 450.468C680.062 445.718 675.621 440.569 671.323 435.597C654.056 415.577 636.222 394.923 613.758 394.923C591.295 394.923 573.461 415.577 556.156 435.597C551.866 440.569 547.425 445.718 542.976 450.468L542.432 448.521C546.858 443.785 551.292 438.651 555.582 433.694C572.955 413.556 590.977 392.724 613.743 392.724C636.509 392.724 654.486 413.556 671.904 433.694C676.187 438.666 680.621 443.785 685.047 448.521L684.503 450.468Z" fill="white" fill-opacity="0.5"/>
<path d="M453.075 450.468C448.633 445.718 444.192 440.569 439.894 435.597C422.627 415.577 404.763 394.923 382.33 394.923C359.896 394.923 342.032 415.577 324.758 435.582C320.468 440.554 316.026 445.703 311.577 450.453L311.033 448.506C315.46 443.77 319.893 438.636 324.184 433.679C341.557 413.541 359.579 392.71 382.345 392.71C405.111 392.71 423.088 413.541 440.506 433.679C444.789 438.636 449.223 443.77 453.649 448.506L453.075 450.468Z" fill="white" fill-opacity="0.5"/>
<path d="M700.532 450.542C690.274 442.708 680.644 431.555 671.33 420.77C654.056 400.839 636.222 380.184 613.759 380.184C591.295 380.184 573.461 400.839 556.156 420.77C546.843 431.555 537.205 442.708 526.947 450.542L526.532 448.476C536.737 440.672 546.337 429.607 555.613 418.867C572.985 398.714 591.008 377.898 613.774 377.898C636.54 377.898 654.517 398.729 671.935 418.867C681.21 429.607 690.818 440.716 700.977 448.476L700.532 450.542Z" fill="white" fill-opacity="0.5"/>
<path d="M469.111 450.535C458.846 442.701 449.215 431.548 439.894 420.764C422.627 400.832 404.763 380.178 382.33 380.178C359.896 380.178 342.033 400.832 324.758 420.837C315.505 431.474 305.935 442.554 295.745 450.373L295.338 448.322C305.436 440.562 314.976 429.527 324.184 418.816C341.557 398.663 359.579 377.847 382.345 377.847C405.111 377.847 423.088 398.678 440.506 418.816C449.782 429.556 459.39 440.665 469.549 448.426L469.111 450.535Z" fill="white" fill-opacity="0.5"/>
<path d="M498.04 446.885C475.289 446.885 457.297 426.053 439.879 405.915C422.612 385.925 404.748 365.241 382.315 365.241C359.881 365.241 342.017 385.895 324.743 405.915C315.505 416.626 305.935 427.706 295.745 435.525L295.338 433.459C305.436 425.714 314.976 414.679 324.184 403.953C341.557 383.8 359.579 362.969 382.345 362.969C405.111 362.969 423.088 383.8 440.506 403.953C457.773 423.944 475.629 444.613 498.071 444.613C520.512 444.613 538.368 423.958 555.642 403.953C573.015 383.8 591.038 362.969 613.804 362.969V365.182C591.362 365.182 573.506 385.836 556.232 405.856C538.783 426.053 520.791 446.885 498.04 446.885Z" fill="white" fill-opacity="0.5"/>
<path d="M498.04 432.036C475.289 432.036 457.297 411.205 439.879 391.067C422.612 371.062 404.748 350.392 382.315 350.392C359.881 350.392 342.017 371.047 324.743 391.067C315.505 401.777 305.935 412.857 295.745 420.676L295.338 418.611C305.436 410.865 314.976 399.83 324.184 389.105C341.557 368.952 359.579 348.12 382.345 348.12C405.111 348.12 423.088 368.952 440.506 389.105C457.773 409.095 475.629 429.764 498.071 429.764C520.512 429.764 538.368 409.11 555.642 389.105C573.015 368.952 591.038 348.12 613.804 348.12V350.333C591.362 350.333 573.506 370.988 556.232 391.008C538.783 411.146 520.791 432.036 498.04 432.036Z" fill="white" fill-opacity="0.5"/>
<path d="M498.04 417.209C475.289 417.209 457.297 396.378 439.879 376.24C422.612 356.235 404.748 335.565 382.315 335.565C359.881 335.565 342.017 356.22 324.743 376.225C315.505 386.95 305.935 398.03 295.745 405.849L295.338 403.784C305.436 396.024 314.976 385.003 324.184 374.278C341.557 354.14 359.579 333.308 382.345 333.308C405.111 333.308 423.088 354.14 440.506 374.278C457.773 394.283 475.629 414.952 498.071 414.952C520.512 414.952 538.368 394.297 555.642 374.278C573.015 354.14 591.038 333.308 613.804 333.308V335.521C591.362 335.521 573.506 356.176 556.232 376.195C538.783 396.407 520.791 417.209 498.04 417.209Z" fill="white" fill-opacity="0.5"/>
<path d="M498.04 402.309C475.289 402.309 457.297 381.477 439.879 361.325C422.612 341.334 404.748 320.665 382.315 320.665C359.881 320.665 342.017 341.319 324.743 361.325C315.505 372.094 305.935 383.13 295.745 390.993L295.338 388.942C305.436 381.182 314.976 370.147 324.184 359.436C341.557 339.298 359.579 318.467 382.345 318.467C405.111 318.467 423.088 339.298 440.506 359.436C457.773 379.427 475.629 400.11 498.071 400.11C520.512 400.11 538.368 379.456 555.642 359.436C573.015 339.298 591.038 318.467 613.804 318.467V320.68C591.362 320.68 573.506 341.334 556.232 361.339C538.783 381.536 520.791 402.309 498.04 402.309Z" fill="white" fill-opacity="0.5"/>
<path d="M498.04 387.556C475.289 387.556 457.297 366.724 439.879 346.572C422.612 326.581 404.748 305.912 382.315 305.912C359.881 305.912 342.017 326.567 324.743 346.572C315.505 357.253 305.935 368.377 295.745 376.152L295.338 374.101C305.436 366.341 314.976 355.306 324.184 344.595C341.557 324.457 359.579 303.625 382.345 303.625C405.111 303.625 423.088 324.457 440.506 344.595C457.773 364.585 475.629 385.269 498.071 385.269C520.512 385.269 538.368 364.615 555.642 344.595C573.015 324.457 591.038 303.625 613.804 303.625V305.838C591.362 305.838 573.506 326.493 556.232 346.498C538.783 366.695 520.791 387.556 498.04 387.556Z" fill="white" fill-opacity="0.5"/>
<path d="M498.04 372.67C475.289 372.67 457.297 351.839 439.879 331.701C422.612 311.711 404.748 291.027 382.315 291.027C359.881 291.027 342.017 311.681 324.743 331.701C315.505 342.412 305.935 353.491 295.745 361.311L295.338 359.26C305.436 351.5 314.976 340.464 324.184 329.754C341.557 309.601 359.579 288.77 382.345 288.77C405.111 288.77 423.088 309.601 440.506 329.754C457.773 349.744 475.629 370.413 498.071 370.413C520.512 370.413 538.368 349.759 555.642 329.754C573.015 309.601 591.038 288.77 613.804 288.77V290.983C591.362 290.983 573.506 311.637 556.232 331.657C538.783 351.839 520.791 372.67 498.04 372.67Z" fill="white" fill-opacity="0.5"/>
<path d="M498.04 357.822C475.289 357.822 457.297 336.991 439.879 316.853C422.612 296.862 404.748 276.179 382.315 276.179C359.881 276.179 342.017 296.833 324.743 316.853C315.505 327.564 305.935 338.643 295.745 346.462L295.338 344.397C305.436 336.651 314.976 325.616 324.184 314.891C341.557 294.738 359.579 273.907 382.345 273.907C405.111 273.907 423.088 294.738 440.506 314.891C457.773 334.881 475.629 355.55 498.071 355.55C520.512 355.55 538.368 334.896 555.642 314.891C573.015 294.738 591.038 273.907 613.804 273.907V276.12C591.362 276.12 573.506 296.774 556.232 316.794C538.783 336.991 520.791 357.822 498.04 357.822Z" fill="white" fill-opacity="0.5"/>
<path d="M498.04 342.988C475.289 342.988 457.297 322.156 439.879 302.018C422.612 282.013 404.748 261.344 382.315 261.344C359.881 261.344 342.017 281.998 324.743 302.018C315.505 312.729 305.935 323.809 295.745 331.628L295.338 329.562C305.436 321.802 314.976 310.782 324.184 300.056C341.557 279.918 359.579 259.087 382.345 259.087C405.111 259.087 423.088 279.918 440.506 300.056C457.773 320.061 475.629 340.73 498.071 340.73C520.512 340.73 538.368 320.076 555.642 300.056C573.015 279.918 591.038 259.087 613.804 259.087V261.3C591.362 261.3 573.506 281.954 556.232 301.974C538.783 322.156 520.791 342.988 498.04 342.988Z" fill="white" fill-opacity="0.5"/>
<path d="M498.04 328.14C475.289 328.14 457.297 307.308 439.879 287.156C422.612 267.165 404.748 246.496 382.315 246.496C359.881 246.496 342.033 267.165 324.758 287.229C315.505 297.881 305.935 308.961 295.745 316.736L295.338 314.67C305.436 306.91 314.976 295.875 324.184 285.164C341.557 265.026 359.579 244.195 382.345 244.195C405.111 244.195 423.088 265.026 440.506 285.164C457.773 305.169 475.629 325.838 498.071 325.838C520.512 325.838 538.368 305.184 555.642 285.164C573.015 265.026 591.038 244.195 613.804 244.195V246.408C591.362 246.408 573.506 267.062 556.232 287.067C538.783 307.308 520.791 328.14 498.04 328.14Z" fill="white" fill-opacity="0.5"/>
<path d="M498.04 313.297C475.289 313.297 457.297 292.466 439.879 272.313C422.612 252.322 404.748 231.653 382.315 231.653C359.881 231.653 342.017 252.308 324.743 272.313C315.505 283.024 305.935 294.103 295.745 301.981L295.338 299.931C305.436 292.171 314.976 281.135 324.184 270.424C341.557 250.287 359.579 229.455 382.345 229.455C405.111 229.455 423.088 250.287 440.506 270.424C457.773 290.415 475.629 311.099 498.071 311.099C520.512 311.099 538.368 290.444 555.642 270.424C573.015 250.287 591.038 229.455 613.804 229.455V231.668C591.362 231.668 573.506 252.322 556.232 272.328C538.783 292.466 520.791 313.297 498.04 313.297Z" fill="white" fill-opacity="0.5"/>
<path d="M498.04 298.449C475.289 298.449 457.297 277.618 439.879 257.465C422.612 237.475 404.748 216.806 382.315 216.806C359.881 216.806 342.017 237.46 324.743 257.465C315.505 268.176 305.935 279.255 295.745 287.075L295.338 285.024C305.436 277.264 314.976 266.229 324.184 255.518C341.557 235.365 359.579 214.548 382.345 214.548C405.111 214.548 423.088 235.38 440.506 255.518C457.773 275.508 475.629 296.192 498.071 296.192C520.512 296.192 538.368 275.538 555.642 255.518C573.015 235.38 591.038 214.548 613.804 214.548V216.761C591.362 216.761 573.506 237.416 556.232 257.421C538.783 277.618 520.791 298.449 498.04 298.449Z" fill="white" fill-opacity="0.5"/>
<path d="M498.04 283.608C475.289 283.608 457.297 262.777 439.879 242.639C422.612 222.648 404.748 201.964 382.315 201.964C359.881 201.964 342.017 222.619 324.743 242.639C315.505 253.305 305.935 264.429 295.745 272.248L295.338 270.183C305.436 262.437 314.976 251.402 324.184 240.677C341.557 220.524 359.579 199.693 382.345 199.693C405.111 199.693 423.088 220.524 440.506 240.677C457.743 260.682 475.599 281.336 498.04 281.336C520.481 281.336 538.338 260.682 555.612 240.677C572.985 220.524 591.007 199.693 613.773 199.693V201.905C591.332 201.905 573.476 222.56 556.201 242.58C538.783 262.777 520.791 283.608 498.04 283.608Z" fill="white" fill-opacity="0.5"/>
<path d="M498.04 268.759C475.289 268.759 457.297 247.928 439.879 227.79C422.612 207.8 404.748 187.116 382.315 187.116C359.881 187.116 342.017 207.77 324.743 227.79C315.505 238.545 305.935 249.58 295.745 257.4L295.338 255.334C305.436 247.589 314.976 236.554 324.184 225.828C341.557 205.675 359.579 184.844 382.345 184.844C405.111 184.844 423.088 205.675 440.506 225.828C457.743 245.922 475.599 266.576 498.04 266.576C520.481 266.576 538.338 245.922 555.612 225.917C572.985 205.764 591.007 184.932 613.773 184.932V187.145C591.332 187.145 573.476 207.8 556.201 227.82C538.783 247.928 520.791 268.759 498.04 268.759Z" fill="white" fill-opacity="0.5"/>
<path d="M498.04 253.911C475.289 253.911 457.297 233.079 439.879 212.927C422.612 192.936 404.748 172.267 382.315 172.267C359.881 172.267 342.017 192.921 324.743 212.927C315.505 223.652 305.935 234.732 295.745 242.551L295.338 240.485C305.436 232.725 314.976 221.705 324.184 210.979C341.557 190.841 359.579 170.01 382.345 170.01C405.111 170.01 423.088 190.841 440.506 210.979C457.773 230.984 475.629 251.653 498.071 251.653C520.512 251.653 538.368 230.999 555.642 210.979C573.015 190.841 591.038 170.01 613.804 170.01V172.223C591.362 172.223 573.506 192.877 556.232 212.882C538.783 233.079 520.791 253.911 498.04 253.911Z" fill="white" fill-opacity="0.5"/>
<path d="M498.04 239.069C475.289 239.069 457.297 218.238 439.879 198.085C422.627 178.051 404.763 157.396 382.33 157.396C359.896 157.396 342.033 178.051 324.758 198.056C315.505 208.811 305.935 219.876 295.745 227.709L295.338 225.644C305.436 217.884 314.976 206.849 324.184 196.138C341.557 176 359.579 155.169 382.345 155.169C405.111 155.169 423.088 176 440.506 196.138C457.773 216.128 475.629 236.812 498.071 236.812C520.512 236.812 538.368 216.158 555.642 196.138C573.015 176 591.038 155.169 613.804 155.169V157.396C591.362 157.396 573.506 178.051 556.232 198.056C538.783 218.238 520.791 239.069 498.04 239.069Z" fill="white" fill-opacity="0.5"/>
<path d="M498.04 224.235C475.289 224.235 457.297 203.404 439.879 183.251C422.627 163.305 404.763 142.651 382.33 142.651C359.896 142.651 342.033 163.305 324.758 183.31C315.505 193.962 305.935 205.042 295.745 212.861L295.338 210.81C305.436 203.05 314.976 192.015 324.184 181.304C341.557 161.166 359.579 140.335 382.345 140.335C405.111 140.335 423.088 161.166 440.506 181.304C457.773 201.294 475.629 221.978 498.071 221.978C520.512 221.978 538.368 201.324 555.642 181.304C573.015 161.166 591.038 140.335 613.804 140.335V142.651C591.362 142.651 573.506 163.305 556.232 183.31C538.783 203.404 520.791 224.235 498.04 224.235Z" fill="white" fill-opacity="0.5"/>
<path d="M498.04 209.372C475.289 209.372 457.297 188.556 439.879 168.403C422.612 148.412 404.748 127.729 382.315 127.729C359.881 127.729 342.017 148.383 324.743 168.403C315.505 179.114 305.935 190.193 295.745 198.012L295.338 195.962C305.436 188.201 314.976 177.166 324.184 166.455C341.557 146.303 359.579 125.471 382.345 125.471C405.111 125.471 423.088 146.303 440.506 166.455C457.773 186.446 475.629 207.115 498.071 207.115C520.512 207.115 538.368 186.461 555.642 166.455C573.015 146.303 591.038 125.471 613.804 125.471V127.684C591.362 127.684 573.506 148.339 556.232 168.359C538.783 188.556 520.791 209.372 498.04 209.372Z" fill="white" fill-opacity="0.5"/>
<path d="M498.04 194.531C475.289 194.531 457.297 173.7 439.879 153.562C422.612 133.571 404.748 112.887 382.315 112.887C359.881 112.887 342.017 133.542 324.743 153.562C315.505 164.272 305.935 175.352 295.745 183.171L295.338 181.106C305.436 173.36 314.976 162.325 324.184 151.599C341.557 131.447 359.579 110.615 382.345 110.615C405.111 110.615 423.088 131.447 440.506 151.599C457.773 171.59 475.629 192.259 498.071 192.259C520.512 192.259 538.368 171.605 555.642 151.599C573.015 131.447 591.038 110.615 613.804 110.615V112.828C591.362 112.828 573.506 133.483 556.232 153.503C538.783 173.7 520.791 194.531 498.04 194.531Z" fill="white" fill-opacity="0.5"/>
<path d="M498.04 179.697C475.289 179.697 457.297 158.866 439.879 138.728C422.612 118.722 404.748 98.0533 382.315 98.0533C359.881 98.0533 342.017 118.708 324.743 138.728C315.505 149.438 305.935 160.518 295.745 168.337L295.338 166.257C305.436 158.511 314.976 147.476 324.184 136.751C341.557 116.613 359.579 95.7813 382.345 95.7813C405.111 95.7813 423.088 116.613 440.506 136.765C457.773 156.756 475.629 177.425 498.071 177.425C520.512 177.425 538.368 156.771 555.642 136.765C573.015 116.613 591.038 95.7813 613.804 95.7813V97.9943C591.362 97.9943 573.506 118.649 556.232 138.669C538.783 158.88 520.791 179.697 498.04 179.697Z" fill="white" fill-opacity="0.5"/>
<path d="M498.04 164.854C475.289 164.854 457.297 144.023 439.879 123.87C422.612 103.88 404.748 83.2106 382.315 83.2106C359.881 83.2106 342.017 103.865 324.743 123.87C315.505 134.596 305.935 145.675 295.745 153.494L295.338 151.503C305.436 143.743 314.976 132.722 324.184 121.997C341.557 101.859 359.579 81.0272 382.345 81.0272C405.111 81.0272 423.088 101.859 440.506 121.997C457.773 142.002 475.629 162.671 498.071 162.671C520.512 162.671 538.368 142.016 555.642 121.997C573.015 101.859 591.038 81.0272 613.804 81.0272V83.2402C591.362 83.2402 573.506 103.894 556.232 123.9C538.783 144.023 520.791 164.854 498.04 164.854Z" fill="white" fill-opacity="0.5"/>
<path d="M498.04 150.029C475.289 150.029 457.297 129.197 439.879 109.045C422.612 89.0543 404.748 68.3852 382.315 68.3852C359.881 68.3852 342.017 89.0395 324.743 109.045C315.505 119.741 305.935 130.85 295.745 138.639L295.338 136.589C305.436 128.829 314.976 117.793 324.184 107.083C341.557 86.9446 359.579 66.1132 382.345 66.1132C405.111 66.1132 423.088 86.9446 440.506 107.083C457.773 127.073 475.629 147.757 498.071 147.757C520.512 147.757 538.368 127.102 555.642 107.083C573.015 86.9446 591.038 66.1132 613.804 66.1132V68.3262C591.362 68.3262 573.506 88.9805 556.232 108.986C538.783 129.183 520.791 150.029 498.04 150.029Z" fill="white" fill-opacity="0.5"/>
<path d="M498.04 135.173C475.289 135.173 457.297 114.341 439.879 94.1886C422.612 74.1982 404.748 53.5291 382.315 53.5291C359.881 53.5291 342.017 74.1835 324.743 94.1886C315.505 104.899 305.935 115.979 295.745 123.798L295.338 121.747C305.436 113.987 314.976 102.952 324.184 92.2412C341.557 72.1033 359.579 51.2719 382.345 51.2719C405.111 51.2719 423.088 72.1033 440.506 92.2412C457.773 112.232 475.629 132.916 498.071 132.916C520.512 132.916 538.368 112.261 555.642 92.2412C573.015 72.1033 591.038 51.2719 613.804 51.2719V53.4849C591.362 53.4849 573.506 74.1392 556.232 94.1444C538.783 114.341 520.791 135.173 498.04 135.173Z" fill="white" fill-opacity="0.5"/>
<path d="M498.04 120.317C475.289 120.317 457.297 99.4854 439.879 79.3475C422.612 59.357 404.748 38.6732 382.315 38.6732C359.881 38.6732 342.017 59.3275 324.743 79.3475C315.505 90.0582 305.935 101.138 295.745 108.957L295.338 106.906C305.436 99.1461 314.976 88.1108 324.184 77.4001C341.557 57.2473 359.579 36.416 382.345 36.416C405.111 36.416 423.088 57.2473 440.506 77.4001C457.773 97.3905 475.629 118.06 498.071 118.06C520.512 118.06 538.368 97.4053 555.642 77.4001C573.015 57.2473 591.038 36.416 613.804 36.416V38.6289C591.362 38.6289 573.506 59.2833 556.232 79.3032C538.783 99.4854 520.791 120.317 498.04 120.317Z" fill="white" fill-opacity="0.5"/>
<path d="M498.04 105.476C475.289 105.476 457.297 84.6443 439.879 64.5064C422.612 44.5159 404.748 23.8321 382.315 23.8321C359.881 23.8321 342.033 44.5159 324.758 64.4621C315.505 75.2171 305.935 86.2967 295.745 94.1158L295.338 92.0504C305.436 84.305 314.976 73.2697 324.184 62.5442C341.557 42.3915 359.579 21.5602 382.345 21.5602C405.111 21.5602 423.088 42.3915 440.506 62.5442C457.773 82.5347 475.629 103.204 498.071 103.204C520.512 103.204 538.368 82.5494 555.642 62.5442C573.015 42.3915 591.038 21.5602 613.804 21.5602V23.7731C591.362 23.7731 573.506 44.4274 556.232 64.4474C538.783 84.6443 520.791 105.476 498.04 105.476Z" fill="white" fill-opacity="0.5"/>
<path d="M498.04 90.6263C475.289 90.6263 457.297 69.7949 439.879 49.6569C422.627 29.6518 404.763 8.98268 382.33 8.98268C359.896 8.98268 342.033 29.6518 324.758 49.7012C315.505 60.3677 305.935 71.4473 295.745 79.2074L295.338 77.1419C305.436 69.3966 314.976 58.3613 324.184 47.6358C341.587 27.5716 359.579 6.76971 382.33 6.76971C405.081 6.76971 423.073 27.6011 440.491 47.7538C457.758 67.7442 475.614 88.4133 498.055 88.4133C520.496 88.4133 538.353 67.759 555.627 47.7538C573 27.6011 591.022 6.76971 613.788 6.76971V8.98268C591.347 8.98268 573.491 29.637 556.216 49.6569C538.783 69.7949 520.791 90.6263 498.04 90.6263Z" fill="white" fill-opacity="0.5"/>
<path d="M498.04 75.7851C475.289 75.7851 457.297 54.9537 439.879 34.801C422.627 14.8106 404.763 -5.8585 382.33 -5.8585C359.896 -5.8585 342.033 14.7958 324.758 34.801C315.505 45.5265 305.935 56.6061 295.745 64.4547L295.338 62.3893C305.436 54.6292 314.976 43.6086 324.184 32.8831C341.557 12.7451 359.579 -8.08621 382.345 -8.08621C405.111 -8.08621 423.088 12.7451 440.506 32.8831C457.773 52.8883 475.629 73.5574 498.071 73.5574C520.512 73.5574 538.368 52.903 555.642 32.8831C573.015 12.7451 591.038 -8.08621 613.804 -8.08621V-5.87325C591.362 -5.87325 573.506 14.7811 556.232 34.7863C538.783 54.9537 520.791 75.7851 498.04 75.7851Z" fill="white" fill-opacity="0.5"/>
<path d="M498.04 60.9442C475.289 60.9442 457.297 40.1129 439.879 19.9601C422.627 -0.030304 404.763 -20.6994 382.33 -20.6994C359.896 -20.6994 342.033 -0.030304 324.758 19.9601C315.505 30.6709 305.935 41.7504 295.745 49.5696L295.338 47.5189C305.436 39.7588 314.976 28.7235 324.184 18.0127C341.557 -2.12524 359.579 -22.9566 382.345 -22.9566C405.111 -22.9566 423.088 -2.12524 440.506 18.0127C457.773 38.0032 475.629 58.687 498.071 58.687C520.512 58.687 538.368 38.0327 555.642 18.0127C573.015 -2.12524 591.038 -22.9566 613.804 -22.9566V-20.7436C591.362 -20.7436 573.506 -0.0893154 556.232 19.9159C538.783 40.1129 520.791 60.9442 498.04 60.9442Z" fill="white" fill-opacity="0.5"/>
<path d="M498.041 46.1047C475.29 46.1047 457.298 25.2586 439.879 5.12062C430.619 -5.61963 421.026 -16.6844 410.852 -24.4888L411.26 -26.5543C421.525 -18.7204 431.155 -7.56704 440.469 3.21747C457.743 23.1489 475.599 43.8917 498.041 43.8917C520.482 43.8917 538.338 23.2374 555.612 3.21747C564.926 -7.56704 574.556 -18.7204 584.859 -26.5543L585.275 -24.4888C575.04 -16.6844 565.462 -5.61963 556.156 5.12062C538.784 25.2733 520.791 46.1047 498.041 46.1047Z" fill="white" fill-opacity="0.5"/>
<path d="M295.746 34.7301L295.338 32.6794C305.437 24.9193 314.976 13.884 324.184 3.17321C333.392 -7.53753 343.151 -18.7204 353.393 -26.5543L353.808 -24.4888C343.626 -16.6844 334.034 -5.61963 324.758 5.12062C315.483 15.8609 305.935 26.9109 295.746 34.7301Z" fill="white" fill-opacity="0.5"/>
<path d="M498.04 31.2475C475.289 31.2475 457.297 10.4161 439.879 -9.72187C435.596 -14.6937 431.162 -19.813 426.729 -24.475L427.272 -26.4224C431.721 -21.6719 436.163 -16.523 440.461 -11.5513C457.743 8.39492 475.599 29.0492 498.04 29.0492C520.481 29.0492 538.338 8.39492 555.612 -11.625C559.902 -16.5968 564.344 -21.7456 568.793 -26.4961L569.337 -24.5487C564.903 -19.813 560.477 -14.6789 556.186 -9.79563C538.783 10.4161 520.791 31.2475 498.04 31.2475Z" fill="white" fill-opacity="0.5"/>
<path d="M295.746 19.8885L295.338 17.823C305.437 10.0777 314.976 -0.957655 324.176 -11.6831C328.474 -16.6549 332.916 -21.8038 337.365 -26.5543L337.909 -24.6069C333.475 -19.8711 329.041 -14.737 324.758 -9.85377C315.505 1.01926 305.935 12.0693 295.746 19.8885Z" fill="white" fill-opacity="0.5"/>
<path d="M498.041 16.4126C475.29 16.4126 457.298 -4.41873 439.88 -24.5567L440.461 -26.4598C457.728 -6.46941 475.585 14.1997 498.026 14.1997C520.467 14.1997 538.323 -6.45465 555.59 -26.4598L556.172 -24.5567C538.784 -4.41873 520.792 16.4126 498.041 16.4126Z" fill="white" fill-opacity="0.5"/>
<path d="M295.746 5.04665L295.338 2.98121C305.429 -4.76416 314.976 -15.7847 324.169 -26.525L324.758 -24.6366C315.498 -13.8373 305.927 -2.77249 295.746 5.04665Z" fill="white" fill-opacity="0.5"/>
<path d="M498.041 1.56425C479.958 1.56425 465.161 -11.6398 453.075 -24.5487L453.619 -26.4961C465.584 -13.7347 480.215 -0.648716 498.041 -0.648716C515.867 -0.648716 530.475 -13.7347 542.462 -26.4961L543.006 -24.5487C530.921 -11.6398 516.123 1.56425 498.041 1.56425Z" fill="white" fill-opacity="0.5"/>
</g>
<g clip-path="url(#clip2_8_14964)">
<path d="M538.135 450.475C550.122 437.699 564.79 424.627 582.66 424.627C600.53 424.627 615.221 437.699 627.192 450.475L627.737 448.527C615.622 435.618 600.788 422.414 582.66 422.414C564.532 422.414 549.706 435.618 537.59 448.527L538.135 450.475Z" fill="white" fill-opacity="0.5"/>
<path d="M770.141 450.475C782.128 437.699 796.795 424.627 814.665 424.627C832.536 424.627 847.226 437.699 859.198 450.475L859.743 448.527C847.627 435.618 832.793 422.414 814.665 422.414C796.538 422.414 781.711 435.618 769.596 448.527L770.141 450.475Z" fill="white" fill-opacity="0.5"/>
<path d="M524.952 450.445C542.262 430.455 560.17 409.786 582.66 409.786C605.149 409.786 623.058 430.44 640.375 450.445L640.951 448.542C623.535 428.404 605.467 407.573 582.645 407.573C559.822 407.573 541.8 428.404 524.338 448.542L524.952 450.445Z" fill="white" fill-opacity="0.5"/>
<path d="M756.958 450.445C774.276 430.455 792.177 409.786 814.666 409.786C837.156 409.786 855.064 430.44 872.382 450.445L872.957 448.542C855.541 428.404 837.474 407.573 814.651 407.573C791.828 407.573 773.814 428.404 756.345 448.542L756.958 450.445Z" fill="white" fill-opacity="0.5"/>
<path d="M511.739 450.468C516.191 445.718 520.644 440.569 524.952 435.597C542.262 415.577 560.14 394.923 582.66 394.923C605.18 394.923 623.058 415.577 640.406 435.597C644.707 440.569 649.16 445.718 653.62 450.468L654.165 448.521C649.727 443.785 645.283 438.651 640.982 433.694C623.565 413.556 605.498 392.724 582.675 392.724C559.853 392.724 541.831 413.556 524.369 433.694C520.076 438.666 515.631 443.785 511.194 448.521L511.739 450.468Z" fill="white" fill-opacity="0.5"/>
<path d="M743.744 450.468C748.197 445.718 752.649 440.569 756.958 435.597C774.268 415.577 792.176 394.923 814.666 394.923C837.155 394.923 855.064 415.577 872.381 435.582C876.682 440.554 881.135 445.703 885.595 450.453L886.14 448.506C881.703 443.77 877.258 438.636 872.957 433.679C855.541 413.541 837.473 392.71 814.651 392.71C791.828 392.71 773.806 413.541 756.344 433.679C752.051 438.636 747.606 443.77 743.169 448.506L743.744 450.468Z" fill="white" fill-opacity="0.5"/>
<path d="M495.67 450.542C505.953 442.708 515.608 431.555 524.945 420.77C542.262 400.839 560.14 380.184 582.66 380.184C605.18 380.184 623.058 400.839 640.406 420.77C649.742 431.555 659.405 442.708 669.688 450.542L670.104 448.476C659.874 440.672 650.25 429.607 640.951 418.867C623.535 398.714 605.468 377.898 582.645 377.898C559.822 377.898 541.8 398.729 524.339 418.867C515.04 429.607 505.408 440.716 495.224 448.476L495.67 450.542Z" fill="white" fill-opacity="0.5"/>
<path d="M727.668 450.535C737.959 442.701 747.613 431.548 756.958 420.764C774.268 400.832 792.176 380.178 814.665 380.178C837.155 380.178 855.063 400.832 872.381 420.837C881.657 431.474 891.251 442.554 901.466 450.373L901.875 448.322C891.751 440.562 882.187 429.527 872.956 418.816C855.54 398.663 837.473 377.847 814.65 377.847C791.828 377.847 773.806 398.678 756.344 418.816C747.046 429.556 737.414 440.665 727.229 448.426L727.668 450.535Z" fill="white" fill-opacity="0.5"/>
<path d="M698.667 446.885C721.474 446.885 739.511 426.053 756.973 405.915C774.283 385.925 792.191 365.241 814.681 365.241C837.17 365.241 855.078 385.895 872.396 405.915C881.657 416.626 891.251 427.706 901.466 435.525L901.875 433.459C891.751 425.714 882.187 414.679 872.956 403.953C855.54 383.8 837.473 362.969 814.65 362.969C791.828 362.969 773.806 383.8 756.344 403.953C739.034 423.944 721.133 444.613 698.636 444.613C676.139 444.613 658.238 423.958 640.921 403.953C623.505 383.8 605.437 362.969 582.615 362.969V365.182C605.112 365.182 623.012 385.836 640.33 405.856C657.822 426.053 675.859 446.885 698.667 446.885Z" fill="white" fill-opacity="0.5"/>
<path d="M698.667 432.036C721.474 432.036 739.511 411.205 756.973 391.067C774.283 371.062 792.191 350.392 814.681 350.392C837.17 350.392 855.078 371.047 872.396 391.067C881.657 401.777 891.251 412.857 901.466 420.676L901.875 418.611C891.751 410.865 882.187 399.83 872.956 389.105C855.54 368.952 837.473 348.12 814.65 348.12C791.828 348.12 773.806 368.952 756.344 389.105C739.034 409.095 721.133 429.764 698.636 429.764C676.139 429.764 658.238 409.11 640.921 389.105C623.505 368.952 605.437 348.12 582.615 348.12V350.333C605.112 350.333 623.012 370.988 640.33 391.008C657.822 411.146 675.859 432.036 698.667 432.036Z" fill="white" fill-opacity="0.5"/>
<path d="M698.667 417.209C721.474 417.209 739.511 396.378 756.973 376.24C774.283 356.235 792.191 335.565 814.681 335.565C837.17 335.565 855.078 356.22 872.396 376.225C881.657 386.95 891.251 398.03 901.466 405.849L901.875 403.784C891.751 396.024 882.187 385.003 872.956 374.278C855.54 354.14 837.473 333.308 814.65 333.308C791.828 333.308 773.806 354.14 756.344 374.278C739.034 394.283 721.133 414.952 698.636 414.952C676.139 414.952 658.238 394.297 640.921 374.278C623.505 354.14 605.437 333.308 582.615 333.308V335.521C605.112 335.521 623.012 356.176 640.33 376.195C657.822 396.407 675.859 417.209 698.667 417.209Z" fill="white" fill-opacity="0.5"/>
<path d="M698.667 402.309C721.474 402.309 739.511 381.477 756.973 361.325C774.283 341.334 792.191 320.665 814.681 320.665C837.17 320.665 855.078 341.319 872.396 361.325C881.657 372.094 891.251 383.13 901.466 390.993L901.875 388.942C891.751 381.182 882.187 370.147 872.956 359.436C855.54 339.298 837.473 318.467 814.65 318.467C791.828 318.467 773.806 339.298 756.344 359.436C739.034 379.427 721.133 400.11 698.636 400.11C676.139 400.11 658.238 379.456 640.921 359.436C623.505 339.298 605.437 318.467 582.615 318.467V320.68C605.112 320.68 623.012 341.334 640.33 361.339C657.822 381.536 675.859 402.309 698.667 402.309Z" fill="white" fill-opacity="0.5"/>
<path d="M698.667 387.556C721.474 387.556 739.511 366.724 756.973 346.572C774.283 326.581 792.191 305.912 814.681 305.912C837.17 305.912 855.078 326.567 872.396 346.572C881.657 357.253 891.251 368.377 901.466 376.152L901.875 374.101C891.751 366.341 882.187 355.306 872.956 344.595C855.54 324.457 837.473 303.625 814.65 303.625C791.828 303.625 773.806 324.457 756.344 344.595C739.034 364.585 721.133 385.269 698.636 385.269C676.139 385.269 658.238 364.615 640.921 344.595C623.505 324.457 605.437 303.625 582.615 303.625V305.838C605.112 305.838 623.012 326.493 640.33 346.498C657.822 366.695 675.859 387.556 698.667 387.556Z" fill="white" fill-opacity="0.5"/>
<path d="M698.667 372.67C721.474 372.67 739.511 351.839 756.973 331.701C774.283 311.711 792.191 291.027 814.681 291.027C837.17 291.027 855.078 311.681 872.396 331.701C881.657 342.412 891.251 353.491 901.466 361.311L901.875 359.26C891.751 351.5 882.187 340.464 872.956 329.754C855.54 309.601 837.473 288.77 814.65 288.77C791.828 288.77 773.806 309.601 756.344 329.754C739.034 349.744 721.133 370.413 698.636 370.413C676.139 370.413 658.238 349.759 640.921 329.754C623.505 309.601 605.437 288.77 582.615 288.77V290.983C605.112 290.983 623.012 311.637 640.33 331.657C657.822 351.839 675.859 372.67 698.667 372.67Z" fill="white" fill-opacity="0.5"/>
<path d="M698.667 357.822C721.474 357.822 739.511 336.991 756.973 316.853C774.283 296.862 792.191 276.179 814.681 276.179C837.17 276.179 855.078 296.833 872.396 316.853C881.657 327.564 891.251 338.643 901.466 346.462L901.875 344.397C891.751 336.651 882.187 325.616 872.956 314.891C855.54 294.738 837.473 273.907 814.65 273.907C791.828 273.907 773.806 294.738 756.344 314.891C739.034 334.881 721.133 355.55 698.636 355.55C676.139 355.55 658.238 334.896 640.921 314.891C623.505 294.738 605.437 273.907 582.615 273.907V276.12C605.112 276.12 623.012 296.774 640.33 316.794C657.822 336.991 675.859 357.822 698.667 357.822Z" fill="white" fill-opacity="0.5"/>
<path d="M698.667 342.988C721.474 342.988 739.511 322.156 756.973 302.018C774.283 282.013 792.191 261.344 814.681 261.344C837.17 261.344 855.078 281.998 872.396 302.018C881.657 312.729 891.251 323.809 901.466 331.628L901.875 329.562C891.751 321.802 882.187 310.782 872.956 300.056C855.54 279.918 837.473 259.087 814.65 259.087C791.828 259.087 773.806 279.918 756.344 300.056C739.034 320.061 721.133 340.73 698.636 340.73C676.139 340.73 658.238 320.076 640.921 300.056C623.505 279.918 605.437 259.087 582.615 259.087V261.3C605.112 261.3 623.012 281.954 640.33 301.974C657.822 322.156 675.859 342.988 698.667 342.988Z" fill="white" fill-opacity="0.5"/>
<path d="M698.667 328.14C721.474 328.14 739.511 307.308 756.973 287.156C774.283 267.165 792.191 246.496 814.681 246.496C837.17 246.496 855.063 267.165 872.381 287.229C881.657 297.881 891.251 308.961 901.466 316.736L901.875 314.67C891.751 306.91 882.187 295.875 872.956 285.164C855.54 265.026 837.473 244.195 814.65 244.195C791.828 244.195 773.806 265.026 756.344 285.164C739.034 305.169 721.133 325.838 698.636 325.838C676.139 325.838 658.238 305.184 640.921 285.164C623.505 265.026 605.437 244.195 582.615 244.195V246.408C605.112 246.408 623.012 267.062 640.33 287.067C657.822 307.308 675.859 328.14 698.667 328.14Z" fill="white" fill-opacity="0.5"/>
<path d="M698.667 313.297C721.474 313.297 739.511 292.466 756.973 272.313C774.283 252.322 792.191 231.653 814.681 231.653C837.17 231.653 855.078 252.308 872.396 272.313C881.657 283.024 891.251 294.103 901.466 301.981L901.875 299.931C891.751 292.171 882.187 281.135 872.956 270.424C855.54 250.287 837.473 229.455 814.65 229.455C791.828 229.455 773.806 250.287 756.344 270.424C739.034 290.415 721.133 311.099 698.636 311.099C676.139 311.099 658.238 290.444 640.921 270.424C623.505 250.287 605.437 229.455 582.615 229.455V231.668C605.112 231.668 623.012 252.322 640.33 272.328C657.822 292.466 675.859 313.297 698.667 313.297Z" fill="white" fill-opacity="0.5"/>
<path d="M698.667 298.449C721.474 298.449 739.511 277.618 756.973 257.465C774.283 237.475 792.191 216.806 814.681 216.806C837.17 216.806 855.078 237.46 872.396 257.465C881.657 268.176 891.251 279.255 901.466 287.075L901.875 285.024C891.751 277.264 882.187 266.229 872.956 255.518C855.54 235.365 837.473 214.548 814.65 214.548C791.828 214.548 773.806 235.38 756.344 255.518C739.034 275.508 721.133 296.192 698.636 296.192C676.139 296.192 658.238 275.538 640.921 255.518C623.505 235.38 605.437 214.548 582.615 214.548V216.761C605.112 216.761 623.012 237.416 640.33 257.421C657.822 277.618 675.859 298.449 698.667 298.449Z" fill="white" fill-opacity="0.5"/>
<path d="M698.667 283.608C721.474 283.608 739.511 262.777 756.973 242.639C774.283 222.648 792.191 201.964 814.681 201.964C837.17 201.964 855.078 222.619 872.396 242.639C881.657 253.305 891.251 264.429 901.466 272.248L901.875 270.183C891.751 262.437 882.187 251.402 872.956 240.677C855.54 220.524 837.473 199.693 814.65 199.693C791.828 199.693 773.806 220.524 756.344 240.677C739.064 260.682 721.164 281.336 698.667 281.336C676.169 281.336 658.269 260.682 640.951 240.677C623.535 220.524 605.468 199.693 582.645 199.693V201.905C605.142 201.905 623.043 222.56 640.36 242.58C657.822 262.777 675.859 283.608 698.667 283.608Z" fill="white" fill-opacity="0.5"/>
<path d="M698.667 268.759C721.474 268.759 739.511 247.928 756.973 227.79C774.283 207.8 792.191 187.116 814.681 187.116C837.17 187.116 855.078 207.77 872.396 227.79C881.657 238.545 891.251 249.58 901.466 257.4L901.875 255.334C891.751 247.589 882.187 236.554 872.956 225.828C855.54 205.675 837.473 184.844 814.65 184.844C791.828 184.844 773.806 205.675 756.344 225.828C739.064 245.922 721.164 266.576 698.667 266.576C676.169 266.576 658.269 245.922 640.951 225.917C623.535 205.764 605.468 184.932 582.645 184.932V187.145C605.142 187.145 623.043 207.8 640.36 227.82C657.822 247.928 675.859 268.759 698.667 268.759Z" fill="white" fill-opacity="0.5"/>
<path d="M698.667 253.911C721.474 253.911 739.511 233.079 756.973 212.927C774.283 192.936 792.191 172.267 814.681 172.267C837.17 172.267 855.078 192.921 872.396 212.927C881.657 223.652 891.251 234.732 901.466 242.551L901.875 240.485C891.751 232.725 882.187 221.705 872.956 210.979C855.54 190.841 837.473 170.01 814.65 170.01C791.828 170.01 773.806 190.841 756.344 210.979C739.034 230.984 721.133 251.653 698.636 251.653C676.139 251.653 658.238 230.999 640.921 210.979C623.505 190.841 605.437 170.01 582.615 170.01V172.223C605.112 172.223 623.012 192.877 640.33 212.882C657.822 233.079 675.859 253.911 698.667 253.911Z" fill="white" fill-opacity="0.5"/>
<path d="M698.667 239.069C721.474 239.069 739.511 218.238 756.973 198.085C774.268 178.051 792.176 157.396 814.665 157.396C837.155 157.396 855.063 178.051 872.381 198.056C881.657 208.811 891.251 219.876 901.466 227.709L901.875 225.644C891.751 217.884 882.187 206.849 872.956 196.138C855.54 176 837.473 155.169 814.65 155.169C791.828 155.169 773.806 176 756.344 196.138C739.034 216.128 721.133 236.812 698.636 236.812C676.139 236.812 658.238 216.158 640.921 196.138C623.505 176 605.437 155.169 582.615 155.169V157.396C605.112 157.396 623.012 178.051 640.33 198.056C657.822 218.238 675.859 239.069 698.667 239.069Z" fill="white" fill-opacity="0.5"/>
<path d="M698.667 224.235C721.474 224.235 739.511 203.404 756.973 183.251C774.268 163.305 792.176 142.651 814.665 142.651C837.155 142.651 855.063 163.305 872.381 183.31C881.657 193.962 891.251 205.042 901.466 212.861L901.875 210.81C891.751 203.05 882.187 192.015 872.956 181.304C855.54 161.166 837.473 140.335 814.65 140.335C791.828 140.335 773.806 161.166 756.344 181.304C739.034 201.294 721.133 221.978 698.636 221.978C676.139 221.978 658.238 201.324 640.921 181.304C623.505 161.166 605.437 140.335 582.615 140.335V142.651C605.112 142.651 623.012 163.305 640.33 183.31C657.822 203.404 675.859 224.235 698.667 224.235Z" fill="white" fill-opacity="0.5"/>
<path d="M698.667 209.372C721.474 209.372 739.511 188.556 756.973 168.403C774.283 148.412 792.191 127.729 814.681 127.729C837.17 127.729 855.078 148.383 872.396 168.403C881.657 179.114 891.251 190.193 901.466 198.012L901.875 195.962C891.751 188.201 882.187 177.166 872.956 166.455C855.54 146.303 837.473 125.471 814.65 125.471C791.828 125.471 773.806 146.303 756.344 166.455C739.034 186.446 721.133 207.115 698.636 207.115C676.139 207.115 658.238 186.461 640.921 166.455C623.505 146.303 605.437 125.471 582.615 125.471V127.684C605.112 127.684 623.012 148.339 640.33 168.359C657.822 188.556 675.859 209.372 698.667 209.372Z" fill="white" fill-opacity="0.5"/>
<path d="M698.667 194.531C721.474 194.531 739.511 173.7 756.973 153.562C774.283 133.571 792.191 112.887 814.681 112.887C837.17 112.887 855.078 133.542 872.396 153.562C881.657 164.272 891.251 175.352 901.466 183.171L901.875 181.106C891.751 173.36 882.187 162.325 872.956 151.599C855.54 131.447 837.473 110.615 814.65 110.615C791.828 110.615 773.806 131.447 756.344 151.599C739.034 171.59 721.133 192.259 698.636 192.259C676.139 192.259 658.238 171.605 640.921 151.599C623.505 131.447 605.437 110.615 582.615 110.615V112.828C605.112 112.828 623.012 133.483 640.33 153.503C657.822 173.7 675.859 194.531 698.667 194.531Z" fill="white" fill-opacity="0.5"/>
<path d="M698.667 179.697C721.474 179.697 739.511 158.866 756.973 138.728C774.283 118.722 792.191 98.0533 814.681 98.0533C837.17 98.0533 855.078 118.708 872.396 138.728C881.657 149.438 891.251 160.518 901.466 168.337L901.875 166.257C891.751 158.511 882.187 147.476 872.956 136.751C855.54 116.613 837.473 95.7813 814.65 95.7813C791.828 95.7813 773.806 116.613 756.344 136.765C739.034 156.756 721.133 177.425 698.636 177.425C676.139 177.425 658.238 156.771 640.921 136.765C623.505 116.613 605.437 95.7813 582.615 95.7813V97.9943C605.112 97.9943 623.012 118.649 640.33 138.669C657.822 158.88 675.859 179.697 698.667 179.697Z" fill="white" fill-opacity="0.5"/>
<path d="M698.667 164.854C721.474 164.854 739.511 144.023 756.973 123.87C774.283 103.88 792.191 83.2106 814.681 83.2106C837.17 83.2106 855.078 103.865 872.396 123.87C881.657 134.596 891.251 145.675 901.466 153.494L901.875 151.503C891.751 143.743 882.187 132.722 872.956 121.997C855.54 101.859 837.473 81.0272 814.65 81.0272C791.828 81.0272 773.806 101.859 756.344 121.997C739.034 142.002 721.133 162.671 698.636 162.671C676.139 162.671 658.238 142.016 640.921 121.997C623.505 101.859 605.437 81.0272 582.615 81.0272V83.2402C605.112 83.2402 623.012 103.894 640.33 123.9C657.822 144.023 675.859 164.854 698.667 164.854Z" fill="white" fill-opacity="0.5"/>
<path d="M698.667 150.029C721.474 150.029 739.511 129.197 756.973 109.045C774.283 89.0543 792.191 68.3852 814.681 68.3852C837.17 68.3852 855.078 89.0395 872.396 109.045C881.657 119.741 891.251 130.85 901.466 138.639L901.875 136.589C891.751 128.829 882.187 117.793 872.956 107.083C855.54 86.9446 837.473 66.1132 814.65 66.1132C791.828 66.1132 773.806 86.9446 756.344 107.083C739.034 127.073 721.133 147.757 698.636 147.757C676.139 147.757 658.238 127.102 640.921 107.083C623.505 86.9446 605.437 66.1132 582.615 66.1132V68.3262C605.112 68.3262 623.012 88.9805 640.33 108.986C657.822 129.183 675.859 150.029 698.667 150.029Z" fill="white" fill-opacity="0.5"/>
<path d="M698.667 135.173C721.474 135.173 739.511 114.341 756.973 94.1886C774.283 74.1982 792.191 53.5291 814.681 53.5291C837.17 53.5291 855.078 74.1835 872.396 94.1886C881.657 104.899 891.251 115.979 901.466 123.798L901.875 121.747C891.751 113.987 882.187 102.952 872.956 92.2412C855.54 72.1033 837.473 51.2719 814.65 51.2719C791.828 51.2719 773.806 72.1033 756.344 92.2412C739.034 112.232 721.133 132.916 698.636 132.916C676.139 132.916 658.238 112.261 640.921 92.2412C623.505 72.1033 605.437 51.2719 582.615 51.2719V53.4849C605.112 53.4849 623.012 74.1392 640.33 94.1444C657.822 114.341 675.859 135.173 698.667 135.173Z" fill="white" fill-opacity="0.5"/>
<path d="M698.667 120.317C721.474 120.317 739.511 99.4854 756.973 79.3475C774.283 59.357 792.191 38.6732 814.681 38.6732C837.17 38.6732 855.078 59.3275 872.396 79.3475C881.657 90.0582 891.251 101.138 901.466 108.957L901.875 106.906C891.751 99.1461 882.187 88.1108 872.956 77.4001C855.54 57.2473 837.473 36.416 814.65 36.416C791.828 36.416 773.806 57.2473 756.344 77.4001C739.034 97.3905 721.133 118.06 698.636 118.06C676.139 118.06 658.238 97.4053 640.921 77.4001C623.505 57.2473 605.437 36.416 582.615 36.416V38.6289C605.112 38.6289 623.012 59.2833 640.33 79.3032C657.822 99.4854 675.859 120.317 698.667 120.317Z" fill="white" fill-opacity="0.5"/>
<path d="M698.667 105.476C721.474 105.476 739.511 84.6443 756.973 64.5064C774.283 44.5159 792.191 23.8321 814.681 23.8321C837.17 23.8321 855.063 44.5159 872.381 64.4621C881.657 75.2171 891.251 86.2967 901.466 94.1158L901.875 92.0504C891.751 84.305 882.187 73.2697 872.956 62.5442C855.54 42.3915 837.473 21.5602 814.65 21.5602C791.828 21.5602 773.806 42.3915 756.344 62.5442C739.034 82.5347 721.133 103.204 698.636 103.204C676.139 103.204 658.238 82.5494 640.921 62.5442C623.505 42.3915 605.437 21.5602 582.615 21.5602V23.7731C605.112 23.7731 623.012 44.4274 640.33 64.4474C657.822 84.6443 675.859 105.476 698.667 105.476Z" fill="white" fill-opacity="0.5"/>
<path d="M698.667 90.6263C721.474 90.6263 739.511 69.7949 756.973 49.6569C774.268 29.6518 792.176 8.98268 814.665 8.98268C837.155 8.98268 855.063 29.6518 872.381 49.7012C881.657 60.3677 891.251 71.4473 901.466 79.2074L901.875 77.1419C891.751 69.3966 882.187 58.3613 872.956 47.6358C855.51 27.5716 837.473 6.76971 814.665 6.76971C791.858 6.76971 773.821 27.6011 756.359 47.7538C739.049 67.7442 721.149 88.4133 698.651 88.4133C676.154 88.4133 658.254 67.759 640.936 47.7538C623.52 27.6011 605.453 6.76971 582.63 6.76971V8.98268C605.127 8.98268 623.028 29.637 640.345 49.6569C657.822 69.7949 675.859 90.6263 698.667 90.6263Z" fill="white" fill-opacity="0.5"/>
<path d="M698.667 75.7851C721.474 75.7851 739.511 54.9537 756.973 34.801C774.268 14.8106 792.176 -5.8585 814.665 -5.8585C837.155 -5.8585 855.063 14.7958 872.381 34.801C881.657 45.5265 891.251 56.6061 901.466 64.4547L901.875 62.3893C891.751 54.6292 882.187 43.6086 872.956 32.8831C855.54 12.7451 837.473 -8.08621 814.65 -8.08621C791.828 -8.08621 773.806 12.7451 756.344 32.8831C739.034 52.8883 721.133 73.5574 698.636 73.5574C676.139 73.5574 658.238 52.903 640.921 32.8831C623.505 12.7451 605.437 -8.08621 582.615 -8.08621V-5.87325C605.112 -5.87325 623.012 14.7811 640.33 34.7863C657.822 54.9537 675.859 75.7851 698.667 75.7851Z" fill="white" fill-opacity="0.5"/>
<path d="M698.667 60.9442C721.474 60.9442 739.511 40.1129 756.973 19.9601C774.268 -0.030304 792.176 -20.6994 814.665 -20.6994C837.155 -20.6994 855.063 -0.030304 872.381 19.9601C881.657 30.6709 891.251 41.7504 901.466 49.5696L901.875 47.5189C891.751 39.7588 882.187 28.7235 872.956 18.0127C855.54 -2.12524 837.473 -22.9566 814.65 -22.9566C791.828 -22.9566 773.806 -2.12524 756.344 18.0127C739.034 38.0032 721.133 58.687 698.636 58.687C676.139 58.687 658.238 38.0327 640.921 18.0127C623.505 -2.12524 605.437 -22.9566 582.615 -22.9566V-20.7436C605.112 -20.7436 623.012 -0.0893154 640.33 19.9159C657.822 40.1129 675.859 60.9442 698.667 60.9442Z" fill="white" fill-opacity="0.5"/>
<path d="M698.666 46.1047C721.474 46.1047 739.511 25.2586 756.972 5.12062C766.256 -5.61963 775.873 -16.6844 786.072 -24.4888L785.664 -26.5543C775.373 -18.7204 765.718 -7.56704 756.382 3.21747C739.064 23.1489 721.163 43.8917 698.666 43.8917C676.169 43.8917 658.268 23.2374 640.951 3.21747C631.614 -7.56704 621.96 -18.7204 611.631 -26.5543L611.215 -24.4888C621.475 -16.6844 631.077 -5.61963 640.406 5.12062C657.822 25.2733 675.859 46.1047 698.666 46.1047Z" fill="white" fill-opacity="0.5"/>
<path d="M901.466 34.7301L901.875 32.6794C891.751 24.9193 882.187 13.884 872.956 3.17321C863.726 -7.53753 853.943 -18.7204 843.675 -26.5543L843.258 -24.4888C853.466 -16.6844 863.082 -5.61963 872.381 5.12062C881.68 15.8609 891.251 26.9109 901.466 34.7301Z" fill="white" fill-opacity="0.5"/>
<path d="M698.666 31.2475C721.474 31.2475 739.511 10.4161 756.972 -9.72187C761.266 -14.6937 765.711 -19.813 770.156 -24.475L769.61 -26.4224C765.15 -21.6719 760.698 -16.523 756.389 -11.5513C739.064 8.39492 721.163 29.0492 698.666 29.0492C676.169 29.0492 658.268 8.39492 640.951 -11.625C636.65 -16.5968 632.197 -21.7456 627.737 -26.4961L627.192 -24.5487C631.637 -19.813 636.074 -14.6789 640.375 -9.79563C657.822 10.4161 675.859 31.2475 698.666 31.2475Z" fill="white" fill-opacity="0.5"/>
<path d="M901.466 19.8885L901.875 17.823C891.751 10.0777 882.187 -0.957655 872.964 -11.6831C868.655 -16.6549 864.203 -21.8038 859.743 -26.5543L859.198 -24.6069C863.643 -19.8711 868.088 -14.737 872.381 -9.85377C881.657 1.01926 891.251 12.0693 901.466 19.8885Z" fill="white" fill-opacity="0.5"/>
<path d="M698.666 16.4126C721.474 16.4126 739.511 -4.41873 756.972 -24.5567L756.389 -26.4598C739.079 -6.46941 721.178 14.1997 698.681 14.1997C676.184 14.1997 658.283 -6.45465 640.973 -26.4598L640.39 -24.5567C657.822 -4.41873 675.859 16.4126 698.666 16.4126Z" fill="white" fill-opacity="0.5"/>
<path d="M901.466 5.04665L901.875 2.98121C891.758 -4.76416 882.187 -15.7847 872.972 -26.525L872.381 -24.6366C881.665 -13.8373 891.259 -2.77249 901.466 5.04665Z" fill="white" fill-opacity="0.5"/>
<path d="M698.667 1.56425C716.795 1.56425 731.629 -11.6398 743.744 -24.5487L743.199 -26.4961C731.205 -13.7347 716.537 -0.648716 698.667 -0.648716C680.796 -0.648716 666.152 -13.7347 654.135 -26.4961L653.589 -24.5487C665.705 -11.6398 680.539 1.56425 698.667 1.56425Z" fill="white" fill-opacity="0.5"/>
</g>
<g clip-path="url(#clip3_8_14964)">
<path d="M-59.9442 450.475C-47.9872 437.699 -33.3563 424.627 -15.5303 424.627C2.29573 424.627 16.9493 437.699 28.8912 450.475L29.4351 448.527C17.3496 435.618 2.55255 422.414 -15.5303 422.414C-33.6131 422.414 -48.4026 435.618 -60.488 448.527L-59.9442 450.475Z" fill="white" fill-opacity="0.5"/>
<path d="M171.485 450.475C183.442 437.699 198.073 424.627 215.899 424.627C233.725 424.627 248.378 437.699 260.32 450.475L260.864 448.527C248.778 435.618 233.981 422.414 215.899 422.414C197.816 422.414 183.026 435.618 170.941 448.527L171.485 450.475Z" fill="white" fill-opacity="0.5"/>
<path d="M-73.094 450.445C-55.827 430.455 -37.9632 409.786 -15.5297 409.786C6.9039 409.786 24.7677 430.44 42.0423 450.445L42.6163 448.542C25.2435 428.404 7.22115 407.573 -15.5448 407.573C-38.3107 407.573 -56.2878 428.404 -73.7059 448.542L-73.094 450.445Z" fill="white" fill-opacity="0.5"/>
<path d="M158.334 450.445C175.609 430.455 193.465 409.786 215.898 409.786C238.332 409.786 256.196 430.44 273.47 450.445L274.044 448.542C256.672 428.404 238.649 407.573 215.883 407.573C193.117 407.573 175.148 428.404 157.722 448.542L158.334 450.445Z" fill="white" fill-opacity="0.5"/>
<path d="M-86.275 450.468C-81.8336 445.718 -77.3922 440.569 -73.0943 435.597C-55.8272 415.577 -37.9937 394.923 -15.5299 394.923C6.93386 394.923 24.7674 415.577 42.0722 435.597C46.3626 440.569 50.804 445.718 55.2529 450.468L55.7968 448.521C51.3705 443.785 46.9366 438.651 42.6463 433.694C25.2735 413.556 7.25112 392.724 -15.5148 392.724C-38.2807 392.724 -56.2578 413.556 -73.6759 433.694C-77.9587 438.666 -82.3925 443.785 -86.8188 448.521L-86.275 450.468Z" fill="white" fill-opacity="0.5"/>
<path d="M145.153 450.468C149.595 445.718 154.036 440.569 158.334 435.597C175.601 415.577 193.465 394.923 215.898 394.923C238.332 394.923 256.196 415.577 273.47 435.582C277.761 440.554 282.202 445.703 286.651 450.453L287.195 448.506C282.769 443.77 278.335 438.636 274.044 433.679C256.672 413.541 238.649 392.71 215.883 392.71C193.117 392.71 175.14 413.541 157.722 433.679C153.44 438.636 149.006 443.77 144.579 448.506L145.153 450.468Z" fill="white" fill-opacity="0.5"/>
<path d="M-102.303 450.542C-92.0459 442.708 -82.4153 431.555 -73.1019 420.77C-55.8273 400.839 -37.9938 380.184 -15.53 380.184C6.93377 380.184 24.7673 400.839 42.0721 420.77C51.3855 431.555 61.0236 442.708 71.2811 450.542L71.6965 448.476C61.4919 440.672 51.8915 429.607 42.616 418.867C25.2432 398.714 7.2208 377.898 -15.5451 377.898C-38.311 377.898 -56.2881 398.729 -73.7062 418.867C-82.9818 429.607 -92.5897 440.716 -102.749 448.476L-102.303 450.542Z" fill="white" fill-opacity="0.5"/>
<path d="M129.117 450.535C139.383 442.701 149.013 431.548 158.334 420.764C175.601 400.832 193.465 380.178 215.898 380.178C238.332 380.178 256.196 400.832 273.47 420.837C282.723 431.474 292.293 442.554 302.483 450.373L302.891 448.322C292.792 440.562 283.252 429.527 274.044 418.816C256.672 398.663 238.649 377.847 215.883 377.847C193.117 377.847 175.14 398.678 157.722 418.816C148.447 429.556 138.839 440.665 128.679 448.426L129.117 450.535Z" fill="white" fill-opacity="0.5"/>
<path d="M100.188 446.885C122.939 446.885 140.931 426.053 158.349 405.915C175.616 385.925 193.48 365.241 215.913 365.241C238.347 365.241 256.211 385.895 273.485 405.915C282.723 416.626 292.293 427.706 302.483 435.525L302.891 433.459C292.792 425.714 283.252 414.679 274.044 403.953C256.672 383.8 238.649 362.969 215.883 362.969C193.117 362.969 175.14 383.8 157.722 403.953C140.455 423.944 122.599 444.613 100.158 444.613C77.7166 444.613 59.8604 423.958 42.5858 403.953C25.213 383.8 7.19064 362.969 -15.5753 362.969V365.182C6.86584 365.182 24.722 385.836 41.9966 405.856C59.445 426.053 77.4372 446.885 100.188 446.885Z" fill="white" fill-opacity="0.5"/>
<path d="M100.188 432.036C122.939 432.036 140.931 411.205 158.349 391.067C175.616 371.062 193.48 350.392 215.913 350.392C238.347 350.392 256.211 371.047 273.485 391.067C282.723 401.777 292.293 412.857 302.483 420.676L302.891 418.611C292.792 410.865 283.252 399.83 274.044 389.105C256.672 368.952 238.649 348.12 215.883 348.12C193.117 348.12 175.14 368.952 157.722 389.105C140.455 409.095 122.599 429.764 100.158 429.764C77.7166 429.764 59.8604 409.11 42.5858 389.105C25.213 368.952 7.19064 348.12 -15.5753 348.12V350.333C6.86584 350.333 24.722 370.988 41.9966 391.008C59.445 411.146 77.4372 432.036 100.188 432.036Z" fill="white" fill-opacity="0.5"/>
<path d="M100.188 417.209C122.939 417.209 140.931 396.378 158.349 376.24C175.616 356.235 193.48 335.565 215.913 335.565C238.347 335.565 256.211 356.22 273.485 376.225C282.723 386.95 292.293 398.03 302.483 405.849L302.891 403.784C292.792 396.024 283.252 385.003 274.044 374.278C256.672 354.14 238.649 333.308 215.883 333.308C193.117 333.308 175.14 354.14 157.722 374.278C140.455 394.283 122.599 414.952 100.158 414.952C77.7166 414.952 59.8604 394.297 42.5858 374.278C25.213 354.14 7.19064 333.308 -15.5753 333.308V335.521C6.86584 335.521 24.722 356.176 41.9966 376.195C59.445 396.407 77.4372 417.209 100.188 417.209Z" fill="white" fill-opacity="0.5"/>
<path d="M100.188 402.309C122.939 402.309 140.931 381.477 158.349 361.325C175.616 341.334 193.48 320.665 215.913 320.665C238.347 320.665 256.211 341.319 273.485 361.325C282.723 372.094 292.293 383.13 302.483 390.993L302.891 388.942C292.792 381.182 283.252 370.147 274.044 359.436C256.672 339.298 238.649 318.467 215.883 318.467C193.117 318.467 175.14 339.298 157.722 359.436C140.455 379.427 122.599 400.11 100.158 400.11C77.7166 400.11 59.8604 379.456 42.5858 359.436C25.213 339.298 7.19064 318.467 -15.5753 318.467V320.68C6.86584 320.68 24.722 341.334 41.9966 361.339C59.445 381.536 77.4372 402.309 100.188 402.309Z" fill="white" fill-opacity="0.5"/>
<path d="M100.188 387.556C122.939 387.556 140.931 366.724 158.349 346.572C175.616 326.581 193.48 305.912 215.913 305.912C238.347 305.912 256.211 326.567 273.485 346.572C282.723 357.253 292.293 368.377 302.483 376.152L302.891 374.101C292.792 366.341 283.252 355.306 274.044 344.595C256.672 324.457 238.649 303.625 215.883 303.625C193.117 303.625 175.14 324.457 157.722 344.595C140.455 364.585 122.599 385.269 100.158 385.269C77.7166 385.269 59.8604 364.615 42.5858 344.595C25.213 324.457 7.19064 303.625 -15.5753 303.625V305.838C6.86584 305.838 24.722 326.493 41.9966 346.498C59.445 366.695 77.4372 387.556 100.188 387.556Z" fill="white" fill-opacity="0.5"/>
<path d="M100.188 372.67C122.939 372.67 140.931 351.839 158.349 331.701C175.616 311.711 193.48 291.027 215.913 291.027C238.347 291.027 256.211 311.681 273.485 331.701C282.723 342.412 292.293 353.491 302.483 361.311L302.891 359.26C292.792 351.5 283.252 340.464 274.044 329.754C256.672 309.601 238.649 288.77 215.883 288.77C193.117 288.77 175.14 309.601 157.722 329.754C140.455 349.744 122.599 370.413 100.158 370.413C77.7166 370.413 59.8604 349.759 42.5858 329.754C25.213 309.601 7.19064 288.77 -15.5753 288.77V290.983C6.86584 290.983 24.722 311.637 41.9966 331.657C59.445 351.839 77.4372 372.67 100.188 372.67Z" fill="white" fill-opacity="0.5"/>
<path d="M100.188 357.822C122.939 357.822 140.931 336.991 158.349 316.853C175.616 296.862 193.48 276.179 215.913 276.179C238.347 276.179 256.211 296.833 273.485 316.853C282.723 327.564 292.293 338.643 302.483 346.462L302.891 344.397C292.792 336.651 283.252 325.616 274.044 314.891C256.672 294.738 238.649 273.907 215.883 273.907C193.117 273.907 175.14 294.738 157.722 314.891C140.455 334.881 122.599 355.55 100.158 355.55C77.7166 355.55 59.8604 334.896 42.5858 314.891C25.213 294.738 7.19064 273.907 -15.5753 273.907V276.12C6.86584 276.12 24.722 296.774 41.9966 316.794C59.445 336.991 77.4372 357.822 100.188 357.822Z" fill="white" fill-opacity="0.5"/>
<path d="M100.188 342.988C122.939 342.988 140.931 322.156 158.349 302.018C175.616 282.013 193.48 261.344 215.913 261.344C238.347 261.344 256.211 281.998 273.485 302.018C282.723 312.729 292.293 323.809 302.483 331.628L302.891 329.562C292.792 321.802 283.252 310.782 274.044 300.056C256.672 279.918 238.649 259.087 215.883 259.087C193.117 259.087 175.14 279.918 157.722 300.056C140.455 320.061 122.599 340.73 100.158 340.73C77.7166 340.73 59.8604 320.076 42.5858 300.056C25.213 279.918 7.19064 259.087 -15.5753 259.087V261.3C6.86584 261.3 24.722 281.954 41.9966 301.974C59.445 322.156 77.4372 342.988 100.188 342.988Z" fill="white" fill-opacity="0.5"/>
<path d="M100.188 328.14C122.939 328.14 140.931 307.308 158.349 287.156C175.616 267.165 193.48 246.496 215.913 246.496C238.347 246.496 256.196 267.165 273.47 287.229C282.723 297.881 292.293 308.961 302.483 316.736L302.891 314.67C292.792 306.91 283.252 295.875 274.044 285.164C256.672 265.026 238.649 244.195 215.883 244.195C193.117 244.195 175.14 265.026 157.722 285.164C140.455 305.169 122.599 325.838 100.158 325.838C77.7166 325.838 59.8604 305.184 42.5858 285.164C25.213 265.026 7.19064 244.195 -15.5753 244.195V246.408C6.86584 246.408 24.722 267.062 41.9966 287.067C59.445 307.308 77.4372 328.14 100.188 328.14Z" fill="white" fill-opacity="0.5"/>
<path d="M100.188 313.297C122.939 313.297 140.931 292.466 158.349 272.313C175.616 252.322 193.48 231.653 215.913 231.653C238.347 231.653 256.211 252.308 273.485 272.313C282.723 283.024 292.293 294.103 302.483 301.981L302.891 299.931C292.792 292.171 283.252 281.135 274.044 270.424C256.672 250.287 238.649 229.455 215.883 229.455C193.117 229.455 175.14 250.287 157.722 270.424C140.455 290.415 122.599 311.099 100.158 311.099C77.7166 311.099 59.8604 290.444 42.5858 270.424C25.213 250.287 7.19064 229.455 -15.5753 229.455V231.668C6.86584 231.668 24.722 252.322 41.9966 272.328C59.445 292.466 77.4372 313.297 100.188 313.297Z" fill="white" fill-opacity="0.5"/>
<path d="M100.188 298.449C122.939 298.449 140.931 277.618 158.349 257.465C175.616 237.475 193.48 216.806 215.913 216.806C238.347 216.806 256.211 237.46 273.485 257.465C282.723 268.176 292.293 279.255 302.483 287.075L302.891 285.024C292.792 277.264 283.252 266.229 274.044 255.518C256.672 235.365 238.649 214.548 215.883 214.548C193.117 214.548 175.14 235.38 157.722 255.518C140.455 275.508 122.599 296.192 100.158 296.192C77.7166 296.192 59.8604 275.538 42.5858 255.518C25.213 235.38 7.19064 214.548 -15.5753 214.548V216.761C6.86584 216.761 24.722 237.416 41.9966 257.421C59.445 277.618 77.4372 298.449 100.188 298.449Z" fill="white" fill-opacity="0.5"/>
<path d="M100.188 283.608C122.939 283.608 140.931 262.777 158.349 242.639C175.616 222.648 193.48 201.964 215.913 201.964C238.347 201.964 256.211 222.619 273.485 242.639C282.723 253.305 292.293 264.429 302.483 272.248L302.891 270.183C292.792 262.437 283.252 251.402 274.044 240.677C256.672 220.524 238.649 199.693 215.883 199.693C193.117 199.693 175.14 220.524 157.722 240.677C140.485 260.682 122.629 281.336 100.188 281.336C77.7469 281.336 59.8907 260.682 42.6161 240.677C25.2433 220.524 7.22089 199.693 -15.545 199.693V201.905C6.89609 201.905 24.7523 222.56 42.0269 242.58C59.445 262.777 77.4372 283.608 100.188 283.608Z" fill="white" fill-opacity="0.5"/>
<path d="M100.188 268.759C122.939 268.759 140.931 247.928 158.349 227.79C175.616 207.8 193.48 187.116 215.913 187.116C238.347 187.116 256.211 207.77 273.485 227.79C282.723 238.545 292.293 249.58 302.483 257.4L302.891 255.334C292.792 247.589 283.252 236.554 274.044 225.828C256.672 205.675 238.649 184.844 215.883 184.844C193.117 184.844 175.14 205.675 157.722 225.828C140.485 245.922 122.629 266.576 100.188 266.576C77.7469 266.576 59.8907 245.922 42.6161 225.917C25.2433 205.764 7.22089 184.932 -15.545 184.932V187.145C6.89609 187.145 24.7523 207.8 42.0269 227.82C59.445 247.928 77.4372 268.759 100.188 268.759Z" fill="white" fill-opacity="0.5"/>
<path d="M100.188 253.911C122.939 253.911 140.931 233.079 158.349 212.927C175.616 192.936 193.48 172.267 215.913 172.267C238.347 172.267 256.211 192.921 273.485 212.927C282.723 223.652 292.293 234.732 302.483 242.551L302.891 240.485C292.792 232.725 283.252 221.705 274.044 210.979C256.672 190.841 238.649 170.01 215.883 170.01C193.117 170.01 175.14 190.841 157.722 210.979C140.455 230.984 122.599 251.653 100.158 251.653C77.7166 251.653 59.8604 230.999 42.5858 210.979C25.213 190.841 7.19064 170.01 -15.5753 170.01V172.223C6.86584 172.223 24.722 192.877 41.9966 212.882C59.445 233.079 77.4372 253.911 100.188 253.911Z" fill="white" fill-opacity="0.5"/>
<path d="M100.188 239.069C122.939 239.069 140.931 218.238 158.349 198.085C175.601 178.051 193.465 157.396 215.898 157.396C238.332 157.396 256.196 178.051 273.47 198.056C282.723 208.811 292.293 219.876 302.483 227.709L302.891 225.644C292.792 217.884 283.252 206.849 274.044 196.138C256.672 176 238.649 155.169 215.883 155.169C193.117 155.169 175.14 176 157.722 196.138C140.455 216.128 122.599 236.812 100.158 236.812C77.7166 236.812 59.8604 216.158 42.5858 196.138C25.213 176 7.19064 155.169 -15.5753 155.169V157.396C6.86584 157.396 24.722 178.051 41.9966 198.056C59.445 218.238 77.4372 239.069 100.188 239.069Z" fill="white" fill-opacity="0.5"/>
<path d="M100.188 224.235C122.939 224.235 140.931 203.404 158.349 183.251C175.601 163.305 193.465 142.651 215.898 142.651C238.332 142.651 256.196 163.305 273.47 183.31C282.723 193.962 292.293 205.042 302.483 212.861L302.891 210.81C292.792 203.05 283.252 192.015 274.044 181.304C256.672 161.166 238.649 140.335 215.883 140.335C193.117 140.335 175.14 161.166 157.722 181.304C140.455 201.294 122.599 221.978 100.158 221.978C77.7166 221.978 59.8604 201.324 42.5858 181.304C25.213 161.166 7.19064 140.335 -15.5753 140.335V142.651C6.86584 142.651 24.722 163.305 41.9966 183.31C59.445 203.404 77.4372 224.235 100.188 224.235Z" fill="white" fill-opacity="0.5"/>
<path d="M100.188 209.372C122.939 209.372 140.931 188.556 158.349 168.403C175.616 148.412 193.48 127.729 215.913 127.729C238.347 127.729 256.211 148.383 273.485 168.403C282.723 179.114 292.293 190.193 302.483 198.012L302.891 195.962C292.792 188.201 283.252 177.166 274.044 166.455C256.672 146.303 238.649 125.471 215.883 125.471C193.117 125.471 175.14 146.303 157.722 166.455C140.455 186.446 122.599 207.115 100.158 207.115C77.7166 207.115 59.8604 186.461 42.5858 166.455C25.213 146.303 7.19064 125.471 -15.5753 125.471V127.684C6.86584 127.684 24.722 148.339 41.9966 168.359C59.445 188.556 77.4372 209.372 100.188 209.372Z" fill="white" fill-opacity="0.5"/>
<path d="M100.188 194.531C122.939 194.531 140.931 173.7 158.349 153.562C175.616 133.571 193.48 112.887 215.913 112.887C238.347 112.887 256.211 133.542 273.485 153.562C282.723 164.272 292.293 175.352 302.483 183.171L302.891 181.106C292.792 173.36 283.252 162.325 274.044 151.599C256.672 131.447 238.649 110.615 215.883 110.615C193.117 110.615 175.14 131.447 157.722 151.599C140.455 171.59 122.599 192.259 100.158 192.259C77.7166 192.259 59.8604 171.605 42.5858 151.599C25.213 131.447 7.19064 110.615 -15.5753 110.615V112.828C6.86584 112.828 24.722 133.483 41.9966 153.503C59.445 173.7 77.4372 194.531 100.188 194.531Z" fill="white" fill-opacity="0.5"/>
<path d="M100.188 179.697C122.939 179.697 140.931 158.866 158.349 138.728C175.616 118.722 193.48 98.0533 215.913 98.0533C238.347 98.0533 256.211 118.708 273.485 138.728C282.723 149.438 292.293 160.518 302.483 168.337L302.891 166.257C292.792 158.511 283.252 147.476 274.044 136.751C256.672 116.613 238.649 95.7813 215.883 95.7813C193.117 95.7813 175.14 116.613 157.722 136.765C140.455 156.756 122.599 177.425 100.158 177.425C77.7166 177.425 59.8604 156.771 42.5858 136.765C25.213 116.613 7.19064 95.7813 -15.5753 95.7813V97.9943C6.86584 97.9943 24.722 118.649 41.9966 138.669C59.445 158.88 77.4372 179.697 100.188 179.697Z" fill="white" fill-opacity="0.5"/>
<path d="M100.188 164.854C122.939 164.854 140.931 144.023 158.349 123.87C175.616 103.88 193.48 83.2106 215.913 83.2106C238.347 83.2106 256.211 103.865 273.485 123.87C282.723 134.596 292.293 145.675 302.483 153.494L302.891 151.503C292.792 143.743 283.252 132.722 274.044 121.997C256.672 101.859 238.649 81.0272 215.883 81.0272C193.117 81.0272 175.14 101.859 157.722 121.997C140.455 142.002 122.599 162.671 100.158 162.671C77.7166 162.671 59.8604 142.016 42.5858 121.997C25.213 101.859 7.19064 81.0272 -15.5753 81.0272V83.2402C6.86584 83.2402 24.722 103.894 41.9966 123.9C59.445 144.023 77.4372 164.854 100.188 164.854Z" fill="white" fill-opacity="0.5"/>
<path d="M100.188 150.029C122.939 150.029 140.931 129.197 158.349 109.045C175.616 89.0543 193.48 68.3852 215.913 68.3852C238.347 68.3852 256.211 89.0395 273.485 109.045C282.723 119.741 292.293 130.85 302.483 138.639L302.891 136.589C292.792 128.829 283.252 117.793 274.044 107.083C256.672 86.9446 238.649 66.1132 215.883 66.1132C193.117 66.1132 175.14 86.9446 157.722 107.083C140.455 127.073 122.599 147.757 100.158 147.757C77.7166 147.757 59.8604 127.102 42.5858 107.083C25.213 86.9446 7.19064 66.1132 -15.5753 66.1132V68.3262C6.86584 68.3262 24.722 88.9805 41.9966 108.986C59.445 129.183 77.4372 150.029 100.188 150.029Z" fill="white" fill-opacity="0.5"/>
<path d="M100.188 135.173C122.939 135.173 140.931 114.341 158.349 94.1886C175.616 74.1982 193.48 53.5291 215.913 53.5291C238.347 53.5291 256.211 74.1835 273.485 94.1886C282.723 104.899 292.293 115.979 302.483 123.798L302.891 121.747C292.792 113.987 283.252 102.952 274.044 92.2412C256.672 72.1033 238.649 51.2719 215.883 51.2719C193.117 51.2719 175.14 72.1033 157.722 92.2412C140.455 112.232 122.599 132.916 100.158 132.916C77.7166 132.916 59.8604 112.261 42.5858 92.2412C25.213 72.1033 7.19064 51.2719 -15.5753 51.2719V53.4849C6.86584 53.4849 24.722 74.1392 41.9966 94.1444C59.445 114.341 77.4372 135.173 100.188 135.173Z" fill="white" fill-opacity="0.5"/>
<path d="M100.188 120.317C122.939 120.317 140.931 99.4854 158.349 79.3475C175.616 59.357 193.48 38.6732 215.913 38.6732C238.347 38.6732 256.211 59.3275 273.485 79.3475C282.723 90.0582 292.293 101.138 302.483 108.957L302.891 106.906C292.792 99.1461 283.252 88.1108 274.044 77.4001C256.672 57.2473 238.649 36.416 215.883 36.416C193.117 36.416 175.14 57.2473 157.722 77.4001C140.455 97.3905 122.599 118.06 100.158 118.06C77.7166 118.06 59.8604 97.4053 42.5858 77.4001C25.213 57.2473 7.19064 36.416 -15.5753 36.416V38.6289C6.86584 38.6289 24.722 59.2833 41.9966 79.3032C59.445 99.4854 77.4372 120.317 100.188 120.317Z" fill="white" fill-opacity="0.5"/>
<path d="M100.188 105.476C122.939 105.476 140.931 84.6443 158.349 64.5064C175.616 44.5159 193.48 23.8321 215.913 23.8321C238.347 23.8321 256.196 44.5159 273.47 64.4621C282.723 75.2171 292.293 86.2967 302.483 94.1158L302.891 92.0504C292.792 84.305 283.252 73.2697 274.044 62.5442C256.672 42.3915 238.649 21.5602 215.883 21.5602C193.117 21.5602 175.14 42.3915 157.722 62.5442C140.455 82.5347 122.599 103.204 100.158 103.204C77.7166 103.204 59.8604 82.5494 42.5858 62.5442C25.213 42.3915 7.19064 21.5602 -15.5753 21.5602V23.7731C6.86584 23.7731 24.722 44.4274 41.9966 64.4474C59.445 84.6443 77.4372 105.476 100.188 105.476Z" fill="white" fill-opacity="0.5"/>
<path d="M100.188 90.6263C122.939 90.6263 140.931 69.7949 158.349 49.6569C175.601 29.6518 193.465 8.98268 215.898 8.98268C238.332 8.98268 256.196 29.6518 273.47 49.7012C282.723 60.3677 292.293 71.4473 302.483 79.2074L302.891 77.1419C292.792 69.3966 283.252 58.3613 274.044 47.6358C256.641 27.5716 238.649 6.76971 215.898 6.76971C193.148 6.76971 175.155 27.6011 157.737 47.7538C140.47 67.7442 122.614 88.4133 100.173 88.4133C77.7318 88.4133 59.8756 67.759 42.601 47.7538C25.2282 27.6011 7.20581 6.76971 -15.5601 6.76971V8.98268C6.88101 8.98268 24.7372 29.637 42.0118 49.6569C59.445 69.7949 77.4372 90.6263 100.188 90.6263Z" fill="white" fill-opacity="0.5"/>
<path d="M100.188 75.7851C122.939 75.7851 140.931 54.9537 158.349 34.801C175.601 14.8106 193.465 -5.8585 215.898 -5.8585C238.332 -5.8585 256.196 14.7958 273.47 34.801C282.723 45.5265 292.293 56.6061 302.483 64.4547L302.891 62.3893C292.792 54.6292 283.252 43.6086 274.044 32.8831C256.672 12.7451 238.649 -8.08621 215.883 -8.08621C193.117 -8.08621 175.14 12.7451 157.722 32.8831C140.455 52.8883 122.599 73.5574 100.158 73.5574C77.7166 73.5574 59.8604 52.903 42.5858 32.8831C25.213 12.7451 7.19064 -8.08621 -15.5753 -8.08621V-5.87325C6.86584 -5.87325 24.722 14.7811 41.9966 34.7863C59.445 54.9537 77.4372 75.7851 100.188 75.7851Z" fill="white" fill-opacity="0.5"/>
<path d="M100.188 60.9442C122.939 60.9442 140.931 40.1129 158.349 19.9601C175.601 -0.030304 193.465 -20.6994 215.898 -20.6994C238.332 -20.6994 256.196 -0.030304 273.47 19.9601C282.723 30.6709 292.293 41.7504 302.483 49.5696L302.891 47.5189C292.792 39.7588 283.252 28.7235 274.044 18.0127C256.672 -2.12524 238.649 -22.9566 215.883 -22.9566C193.117 -22.9566 175.14 -2.12524 157.722 18.0127C140.455 38.0032 122.599 58.687 100.158 58.687C77.7166 58.687 59.8604 38.0327 42.5858 18.0127C25.213 -2.12524 7.19064 -22.9566 -15.5753 -22.9566V-20.7436C6.86584 -20.7436 24.722 -0.0893154 41.9966 19.9159C59.445 40.1129 77.4372 60.9442 100.188 60.9442Z" fill="white" fill-opacity="0.5"/>
<path d="M100.188 46.1047C122.939 46.1047 140.931 25.2586 158.349 5.12062C167.609 -5.61963 177.202 -16.6844 187.377 -24.4888L186.969 -26.5543C176.704 -18.7204 167.073 -7.56704 157.76 3.21747C140.485 23.1489 122.629 43.8917 100.188 43.8917C77.7468 43.8917 59.8906 23.2374 42.616 3.21747C33.3027 -7.56704 23.6721 -18.7204 13.3693 -26.5543L12.9539 -24.4888C23.1887 -16.6844 32.7664 -5.61963 42.0722 5.12062C59.445 25.2733 77.4372 46.1047 100.188 46.1047Z" fill="white" fill-opacity="0.5"/>
<path d="M302.483 34.7301L302.891 32.6794C292.792 24.9193 283.252 13.884 274.044 3.17321C264.837 -7.53753 255.078 -18.7204 244.835 -26.5543L244.42 -24.4888C254.602 -16.6844 264.195 -5.61963 273.47 5.12062C282.746 15.8609 292.293 26.9109 302.483 34.7301Z" fill="white" fill-opacity="0.5"/>
<path d="M100.188 31.2475C122.939 31.2475 140.931 10.4161 158.349 -9.72187C162.632 -14.6937 167.066 -19.813 171.5 -24.475L170.956 -26.4224C166.507 -21.6719 162.065 -16.523 157.768 -11.5513C140.485 8.39492 122.629 29.0492 100.188 29.0492C77.7469 29.0492 59.8907 8.39492 42.6161 -11.625C38.3258 -16.5968 33.8844 -21.7456 29.4355 -26.4961L28.8916 -24.5487C33.3255 -19.813 37.7517 -14.6789 42.0421 -9.79563C59.4451 10.4161 77.4373 31.2475 100.188 31.2475Z" fill="white" fill-opacity="0.5"/>
<path d="M302.483 19.8885L302.891 17.823C292.792 10.0777 283.252 -0.957655 274.052 -11.6831C269.754 -16.6549 265.313 -21.8038 260.864 -26.5543L260.32 -24.6069C264.754 -19.8711 269.188 -14.737 273.47 -9.85377C282.723 1.01926 292.293 12.0693 302.483 19.8885Z" fill="white" fill-opacity="0.5"/>
<path d="M100.188 16.4126C122.938 16.4126 140.931 -4.41873 158.349 -24.5567L157.767 -26.4598C140.5 -6.46941 122.644 14.1997 100.203 14.1997C77.7615 14.1997 59.9053 -6.45465 42.6383 -26.4598L42.0567 -24.5567C59.4446 -4.41873 77.4367 16.4126 100.188 16.4126Z" fill="white" fill-opacity="0.5"/>
<path d="M302.483 5.04665L302.891 2.98121C292.799 -4.76416 283.252 -15.7847 274.059 -26.525L273.47 -24.6366C282.731 -13.8373 292.301 -2.77249 302.483 5.04665Z" fill="white" fill-opacity="0.5"/>
<path d="M100.188 1.56425C118.271 1.56425 133.068 -11.6398 145.153 -24.5487L144.609 -26.4961C132.645 -13.7347 118.014 -0.648716 100.188 -0.648716C82.3618 -0.648716 67.7535 -13.7347 55.7663 -26.4961L55.2224 -24.5487C67.3079 -11.6398 82.1049 1.56425 100.188 1.56425Z" fill="white" fill-opacity="0.5"/>
</g>
<defs>
<linearGradient id="paint0_linear_8_14964" x1="-1158.67" y1="-347.461" x2="2435.33" y2="574.001" gradientUnits="userSpaceOnUse">
<stop stop-color="#E2CCF2" stop-opacity="0.8"/>
<stop offset="0.489583" stop-color="#E2CCF2" stop-opacity="0"/>
<stop offset="1" stop-color="#EFE5F6"/>
</linearGradient>
<clipPath id="clip0_8_14964">
<rect width="299.114" height="424.889" fill="white" transform="translate(898.089 0.00372314)"/>
</clipPath>
<clipPath id="clip1_8_14964">
<rect width="299.114" height="424.889" fill="white" transform="translate(299.115 0.00372314)"/>
</clipPath>
<clipPath id="clip2_8_14964">
<rect width="299.86" height="424.889" fill="white" transform="matrix(-1 0 0 1 898.089 0.00372314)"/>
</clipPath>
<clipPath id="clip3_8_14964">
<rect width="299.114" height="424.889" fill="white" transform="matrix(-1 0 0 1 299.115 0.00372314)"/>
</clipPath>
</defs>
</svg>
