<svg width="80" height="80" viewBox="0 0 80 80" fill="none" xmlns="http://www.w3.org/2000/svg">
<rect x="6.33313" y="6.0036" width="68.4444" height="68.4444" rx="34.2222" fill="#1F989E"/>
<circle cx="40.111" cy="40.2259" r="39.0892" stroke="#1AA3A3" stroke-width="0.932785"/>
<path d="M43.1667 33.1703H52.639L43.1667 23.6981V33.1703ZM31.1112 21.1147H44.889L55.2223 31.4481V52.1147C55.2223 53.0283 54.8594 53.9044 54.2134 54.5503C53.5675 55.1963 52.6914 55.5592 51.7779 55.5592H31.1112C30.1977 55.5592 29.3216 55.1963 28.6756 54.5503C28.0296 53.9044 27.6667 53.0283 27.6667 52.1147V24.5592C27.6667 22.6475 29.1995 21.1147 31.1112 21.1147ZM44.889 52.1147V50.3925C44.889 48.102 40.2906 46.9481 38.0001 46.9481C35.7095 46.9481 31.1112 48.102 31.1112 50.3925V52.1147H44.889ZM38.0001 38.337C37.0866 38.337 36.2105 38.6999 35.5645 39.3458C34.9185 39.9918 34.5556 40.8679 34.5556 41.7814C34.5556 42.6949 34.9185 43.571 35.5645 44.217C36.2105 44.863 37.0866 45.2259 38.0001 45.2259C38.9136 45.2259 39.7897 44.863 40.4357 44.217C41.0816 43.571 41.4445 42.6949 41.4445 41.7814C41.4445 40.8679 41.0816 39.9918 40.4357 39.3458C39.7897 38.6999 38.9136 38.337 38.0001 38.337Z" fill="white"/>
</svg>
