<svg width="80" height="80" viewBox="0 0 80 80" fill="none" xmlns="http://www.w3.org/2000/svg">
<rect x="5.77783" y="6.0036" width="68.4444" height="68.4444" rx="34.2222" fill="#2F3640"/>
<circle cx="40.0001" cy="40.2259" r="39.0889" stroke="#3B4350" stroke-width="0.933333"/>
<path fill-rule="evenodd" clip-rule="evenodd" d="M49.2018 52.6243C49.4018 52.8241 49.6729 52.9363 49.9555 52.9363C50.2382 52.9363 50.5093 52.8241 50.7093 52.6243L53.5538 49.7799C53.6586 49.6823 53.7426 49.5645 53.8009 49.4336C53.8592 49.3028 53.8906 49.1616 53.8931 49.0183C53.8956 48.8751 53.8693 48.7329 53.8156 48.6C53.762 48.4672 53.6821 48.3466 53.5808 48.2453C53.4795 48.144 53.3589 48.0641 53.2261 48.0105C53.0933 47.9568 52.951 47.9305 52.8078 47.933C52.6646 47.9355 52.5233 47.9669 52.3925 48.0252C52.2616 48.0835 52.1439 48.1675 52.0462 48.2723L51.0222 49.2963V43.3372C51.0222 43.0543 50.9098 42.783 50.7098 42.583C50.5097 42.383 50.2384 42.2706 49.9555 42.2706C49.6726 42.2706 49.4013 42.383 49.2013 42.583C49.0013 42.783 48.8889 43.0543 48.8889 43.3372V49.2963L47.8649 48.2723C47.7672 48.1675 47.6495 48.0835 47.5186 48.0252C47.3878 47.9669 47.2465 47.9355 47.1033 47.933C46.9601 47.9305 46.8178 47.9568 46.685 48.0105C46.5522 48.0641 46.4315 48.144 46.3302 48.2453C46.229 48.3466 46.1491 48.4672 46.0955 48.6C46.0418 48.7329 46.0155 48.8751 46.018 49.0183C46.0205 49.1616 46.0519 49.3028 46.1102 49.4336C46.1685 49.5645 46.2525 49.6823 46.3573 49.7799L49.2018 52.6243Z" fill="white"/>
<path d="M37.1557 29.1148H42.8446C48.2078 29.1148 50.8901 29.1148 52.5556 30.7817C53.7559 31.9806 54.0916 33.7072 54.1854 36.5815H25.8149C25.9088 33.7072 26.2445 31.9806 27.4448 30.7817C29.1102 29.1148 31.7925 29.1148 37.1557 29.1148Z" fill="white"/>
<path fill-rule="evenodd" clip-rule="evenodd" d="M37.1557 51.8705H42.8446C43.7833 51.8705 44.638 51.8705 45.4217 51.862L44.8485 51.2888C44.4225 50.8627 44.1254 50.325 43.9914 49.7375C43.8575 49.15 43.8921 48.5366 44.0914 47.968C44.2906 47.3993 44.6464 46.8984 45.1178 46.523C45.5891 46.1476 46.1569 45.913 46.7557 45.846V43.3372C46.7557 42.4885 47.0929 41.6746 47.693 41.0744C48.2931 40.4743 49.107 40.1372 49.9557 40.1372C50.8044 40.1372 51.6184 40.4743 52.2185 41.0744C52.8186 41.6746 53.1557 42.4885 53.1557 43.3372V45.846C53.4743 45.8815 53.7886 45.964 54.0859 46.0949C54.2224 44.6414 54.2224 42.8195 54.2224 40.4927C54.2224 39.8641 54.2224 39.2725 54.2196 38.715H25.7808C25.778 39.2725 25.778 39.8641 25.778 40.4927C25.778 45.8559 25.778 48.5383 27.4448 50.2037C29.1102 51.8705 31.7925 51.8705 37.1557 51.8705ZM31.4668 45.115C31.1839 45.115 30.9126 45.2273 30.7126 45.4274C30.5126 45.6274 30.4002 45.8987 30.4002 46.1816C30.4002 46.4645 30.5126 46.7358 30.7126 46.9359C30.9126 47.1359 31.1839 47.2483 31.4668 47.2483H37.1557C37.4386 47.2483 37.7099 47.1359 37.91 46.9359C38.11 46.7358 38.2224 46.4645 38.2224 46.1816C38.2224 45.8987 38.11 45.6274 37.91 45.4274C37.7099 45.2273 37.4386 45.115 37.1557 45.115H31.4668ZM40.7113 45.115C40.4284 45.115 40.1571 45.2273 39.957 45.4274C39.757 45.6274 39.6446 45.8987 39.6446 46.1816C39.6446 46.4645 39.757 46.7358 39.957 46.9359C40.1571 47.1359 40.4284 47.2483 40.7113 47.2483H42.8446C43.1275 47.2483 43.3988 47.1359 43.5989 46.9359C43.7989 46.7358 43.9113 46.4645 43.9113 46.1816C43.9113 45.8987 43.7989 45.6274 43.5989 45.4274C43.3988 45.2273 43.1275 45.115 42.8446 45.115H40.7113Z" fill="white"/>
</svg>
