<svg width="80" height="80" viewBox="0 0 80 80" fill="none" xmlns="http://www.w3.org/2000/svg">
<rect x="5.66711" y="6.0036" width="68.4444" height="68.4444" rx="34.2222" fill="#1F989E"/>
<circle cx="39.8888" cy="40.2259" r="39.0889" stroke="#27BEC5" stroke-width="0.933333"/>
<path d="M44.1163 28.0584C45.8563 30.8768 47.5168 35.4265 47.9357 42.7066L51.1579 46.6377C51.9192 47.5904 52.3336 48.7737 52.333 49.9931V57.0777C52.333 57.3032 52.262 57.5229 52.1302 57.7058C51.9984 57.8886 51.8124 58.0254 51.5985 58.0967C51.3847 58.168 51.1538 58.1702 50.9386 58.103C50.7235 58.0357 50.5349 57.9025 50.3996 57.7222L47.983 54.5C47.6264 54.0231 47.0807 53.6407 46.3675 53.2755C45.9078 53.0435 45.4782 52.8631 45.0207 52.6697L44.5996 52.4914C43.0959 53.4108 41.27 53.8555 39.4441 53.8555C37.6181 53.8555 35.7922 53.4108 34.2885 52.4914C34.1424 52.5559 34.0028 52.6139 33.8632 52.6719C33.4099 52.8631 32.9803 53.0435 32.5206 53.2755C31.8074 53.6407 31.2618 54.0231 30.9052 54.5L28.4885 57.7222C28.3533 57.9025 28.1647 58.0357 27.9495 58.103C27.7343 58.1702 27.5035 58.168 27.2896 58.0967C27.0757 58.0254 26.8897 57.8886 26.7579 57.7058C26.6261 57.5229 26.5552 57.3032 26.5552 57.0777V49.9931C26.5552 48.7734 26.9703 47.5901 27.7324 46.6377L27.741 46.627L30.9567 42.7066C31.3799 35.5683 33.0383 31.0336 34.7675 28.1937C35.7686 26.5461 36.7868 25.4828 37.5816 24.8211C37.9817 24.4855 38.4142 24.1905 38.8727 23.9404C39.0465 23.8396 39.2432 23.7849 39.4441 23.7814C39.661 23.7814 39.8093 23.8394 39.9811 23.9189C40.0606 23.9554 40.1658 24.007 40.2926 24.08C40.5461 24.2218 40.8876 24.4388 41.2872 24.7567C42.0884 25.3947 43.1131 26.4301 44.1163 28.0584ZM42.6663 36.6703C42.6663 34.2966 41.2227 32.374 39.4441 32.374C37.6654 32.374 36.2218 34.2966 36.2218 36.6703C36.2218 39.044 37.6654 40.9666 39.4441 40.9666C41.2227 40.9666 42.6663 39.044 42.6663 36.6703Z" fill="white"/>
<path d="M39.446 54.9289C40.52 54.9289 41.592 54.8301 42.6231 54.6303L40.3052 57.7215C40.2052 57.8549 40.0755 57.9632 39.9263 58.0377C39.7772 58.1123 39.6127 58.1511 39.446 58.1511C39.2792 58.1511 39.1148 58.1123 38.9656 58.0377C38.8165 57.9632 38.6868 57.8549 38.5867 57.7215L36.2689 54.6303C37.3 54.8301 38.374 54.9289 39.446 54.9289Z" fill="white"/>
</svg>
