<svg width="138" height="32" viewBox="0 0 138 32" fill="none" xmlns="http://www.w3.org/2000/svg">
<g clip-path="url(#clip0_8_14475)">
<path d="M3.86118 29.6223V13.5267H0.714966V9.3591H3.86118V8.17352C3.86118 4.25225 6.72003 1.43445 11.2965 1.43445H13.625V5.43782H11.5001C9.37527 5.43782 8.39495 6.45919 8.39495 8.33773V9.3591H13.9517V13.5267H8.39495V29.6223H3.86118Z" fill="#6E00BE"/>
<path d="M14.4822 19.4907C14.4822 13.5677 19.1802 8.9502 25.1852 8.9502C31.1903 8.9502 35.8472 13.5661 35.8472 19.4907C35.8472 25.4153 31.1492 30.0311 25.1852 30.0311C19.2212 30.0311 14.4822 25.4153 14.4822 19.4907ZM31.3134 19.4907C31.3134 15.8551 28.7403 13.1999 25.1852 13.1999C21.6301 13.1999 19.0159 15.8551 19.0159 19.4907C19.0159 23.1262 21.6301 25.7815 25.1852 25.7815C28.7403 25.7815 31.3134 23.1262 31.3134 19.4907Z" fill="#6E00BE"/>
<path d="M68.9974 29.6223V9.35907H73.3276V11.4429C74.6347 9.8911 76.7185 8.9502 79.2916 8.9502C84.2753 8.9502 87.8304 12.5053 87.8304 18.1015V29.6223H83.2966V18.5104C83.2966 15.2016 81.4985 13.2409 78.5576 13.2409C75.6166 13.2409 73.5328 15.2837 73.5328 18.5104V29.6223H68.9974Z" fill="#6E00BE"/>
<path d="M90.6088 19.4907C90.6088 13.5677 95.021 8.95022 100.822 8.95022C103.56 8.95022 105.888 10.0126 107.399 11.8501V1.43445H111.934V29.6223H107.604V26.926C106.133 28.8866 103.683 30.0312 100.822 30.0312C95.021 30.0312 90.6088 25.4153 90.6088 19.4907ZM107.44 19.4907C107.44 15.8551 104.867 13.1999 101.312 13.1999C97.7567 13.1999 95.1425 15.8551 95.1425 19.4907C95.1425 23.1262 97.7567 25.7404 101.312 25.7404C104.867 25.7404 107.44 23.1262 107.44 19.4907Z" fill="#6E00BE"/>
<path d="M116.018 3.59868C116.018 2.08797 117.122 0.984497 118.632 0.984497C120.143 0.984497 121.247 2.08797 121.247 3.59868C121.247 5.10939 120.143 6.17181 118.632 6.17181C117.122 6.17181 116.018 5.06834 116.018 3.59868ZM116.345 29.6223V9.35908H120.88V29.6223H116.345Z" fill="#6E00BE"/>
<path d="M133.626 29.6222C129.01 29.6222 126.803 27.6205 126.803 23.4119V13.525H123.453V9.35737H125.782C126.394 9.35737 126.803 8.94849 126.803 8.21284V4.29321H131.339V9.35901H136.731V13.5266H131.339V22.9636C131.339 24.5564 132.115 25.3742 133.953 25.3742H136.731V29.6222H133.626Z" fill="#6E00BE"/>
<path d="M37.5452 11.6465C37.5353 11.7926 37.514 12.1326 37.4943 12.612C37.4746 13.0915 37.4581 13.7155 37.4581 14.4413C37.4581 15.7024 37.509 17.2723 37.6913 18.939C37.8276 20.1902 38.0378 21.4957 38.3596 22.7699C38.601 23.7256 38.9032 24.6649 39.289 25.5516C39.8671 26.88 40.629 28.0952 41.6635 29.0443C42.1791 29.5172 42.7637 29.9211 43.4172 30.2266C44.0708 30.5336 44.79 30.7405 45.5683 30.8309L45.6242 30.8358C45.8935 30.8506 46.1611 30.8571 46.4271 30.8571C48.3976 30.8571 50.2368 30.4597 51.9232 29.7668C53.3994 29.1625 54.7623 28.3349 56.0136 27.3579C58.2041 25.6468 60.058 23.4809 61.6213 21.2001C63.9628 17.778 65.6493 14.0948 66.7593 11.2573C67.8677 8.41983 68.3964 6.43128 68.403 6.40665C68.5327 5.91895 68.2421 5.41648 67.7528 5.28675C67.2651 5.15703 66.7626 5.44767 66.6329 5.93701C66.6263 5.96164 66.2289 7.44444 65.4128 9.64646C64.1895 12.9487 62.0121 17.8716 58.8363 21.9045C57.2501 23.921 55.4175 25.7125 53.3534 26.9868C52.3205 27.6239 51.2318 28.1346 50.0791 28.4843C48.928 28.8357 47.7129 29.0279 46.4255 29.0279C46.194 29.0279 45.9591 29.0213 45.721 29.0082L45.6718 29.9211L45.7769 29.0131C45.0774 28.931 44.4731 28.7323 43.9312 28.4384C43.4566 28.1805 43.0297 27.8472 42.6389 27.4449C41.9558 26.7404 41.3893 25.8176 40.936 24.7585C40.2546 23.1689 39.8342 21.2822 39.5928 19.448C39.3514 17.6138 39.2841 15.8322 39.2841 14.4413C39.2841 13.7451 39.3005 13.1457 39.3186 12.6876C39.3367 12.2278 39.358 11.9109 39.3679 11.7664C39.4007 11.2623 39.0181 10.8271 38.514 10.7943C38.0099 10.7614 37.5747 11.144 37.5419 11.6481L37.5452 11.6465Z" fill="#E119A0"/>
<path d="M37.5057 11.571C37.5007 11.6022 37.3152 12.929 37.3152 14.7927C37.3152 15.8716 37.3776 17.1311 37.5796 18.4299C37.7306 19.4037 37.9605 20.3988 38.3086 21.3578C38.5697 22.077 38.8965 22.7749 39.3119 23.4235C39.9327 24.3956 40.7586 25.261 41.8276 25.8735C42.895 26.4876 44.1938 26.8341 45.698 26.8324C47.2054 26.8324 48.6324 26.5204 49.9542 25.9851C52.2728 25.0442 54.2745 23.4333 55.9888 21.5778C58.5587 18.7912 60.498 15.4332 61.8116 12.7631C63.1237 10.0931 63.8051 8.11115 63.815 8.08487C63.9874 7.5824 63.7197 7.03395 63.2173 6.86153C62.7148 6.68911 62.1663 6.95677 61.9939 7.45924L62.1417 7.51015L61.9939 7.45924L62.1417 7.51015L61.9939 7.45924C61.989 7.47402 61.6015 8.5972 60.856 10.2672C59.741 12.7714 57.8116 16.5071 55.2089 19.5564C53.91 21.0819 52.4436 22.4317 50.8524 23.3857C50.056 23.8636 49.2301 24.2429 48.3713 24.504C47.5141 24.7651 46.6257 24.9063 45.698 24.9063C44.9787 24.9063 44.3548 24.811 43.8096 24.6435C43.3317 24.4974 42.913 24.2971 42.537 24.0491C41.8802 23.6173 41.3465 23.0392 40.908 22.343C40.2512 21.3019 39.8226 19.9948 39.573 18.6533C39.3202 17.3133 39.243 15.9455 39.243 14.7927C39.243 13.9257 39.2873 13.1786 39.33 12.6531C39.3514 12.3904 39.3727 12.1835 39.3891 12.0439C39.3973 11.9733 39.4039 11.9208 39.4088 11.8863C39.4105 11.8682 39.4121 11.8567 39.4138 11.8485V11.8403L39.0903 11.796L39.4138 11.8419L39.0903 11.796L39.4138 11.8419C39.4876 11.3148 39.1215 10.8288 38.5944 10.7532C38.0673 10.6777 37.5812 11.0455 37.5057 11.5726V11.571Z" fill="#00AEFF"/>
<path d="M37.4959 11.699V11.722C37.4959 11.8648 37.5025 12.589 37.624 13.6054C37.7159 14.369 37.8719 15.2968 38.1462 16.2754C38.3514 17.0078 38.6224 17.7681 38.9869 18.507C39.2595 19.0604 39.5863 19.6023 39.9771 20.1064C40.5649 20.8617 41.3055 21.5366 42.2267 22.0178C43.1463 22.4989 44.2383 22.778 45.4764 22.7764C46.5372 22.7764 47.5438 22.5662 48.4748 22.2066C50.107 21.5761 51.5126 20.5021 52.713 19.2755C54.5127 17.4315 55.8674 15.2278 56.7886 13.4773C57.7098 11.7269 58.191 10.428 58.2008 10.4001C58.3864 9.9009 58.1318 9.34752 57.6327 9.16197C57.1335 8.97642 56.5801 9.23094 56.3945 9.73013C56.3863 9.75476 56.1121 10.4855 55.5948 11.561C54.8214 13.1752 53.4946 15.5644 51.7409 17.4955C50.8657 18.461 49.8854 19.31 48.8361 19.9044C47.7835 20.5005 46.6735 20.847 45.4747 20.847C44.7194 20.847 44.0855 20.7172 43.5371 20.5005C43.0576 20.31 42.6389 20.0506 42.2645 19.732C41.6109 19.177 41.0888 18.4331 40.6865 17.6039C40.0822 16.3608 39.7538 14.9371 39.5912 13.8008C39.427 12.6645 39.4204 11.8188 39.4204 11.722V11.7121C39.4237 11.1801 38.9968 10.7466 38.4647 10.7416C37.9327 10.7367 37.4992 11.1653 37.4943 11.6973L37.4959 11.699Z" fill="#FFA000"/>
</g>
<defs>
<clipPath id="clip0_8_14475">
<rect width="138" height="30.0311" fill="white" transform="translate(0 0.984497)"/>
</clipPath>
</defs>
</svg>
